<svg width="24" height="24" viewBox="0 0 24 24" fill="none" xmlns="http://www.w3.org/2000/svg">
<path fill-rule="evenodd" clip-rule="evenodd" d="M10.5 12.9173C16.0155 12.9173 18.9301 15.4392 18.9988 20.3225L19 20.5H17.75C17.75 16.2047 15.418 14.1403 10.5 14.1403C5.64846 14.1403 3.3135 16.1492 3.25128 20.3271L3.25 20.5H2C2 15.5004 4.918 12.9173 10.5 12.9173ZM19.75 7.41367V9.615L22 9.61511V10.8381L19.75 10.838V13.0396H18.5V10.838L16.25 10.8381V9.61511L18.5 9.615V7.41367H19.75ZM10.5 3C12.9784 3 15 4.97024 15 7.46176C15 9.96357 12.9671 12 10.5 12C8.0329 12 6 9.96357 6 7.46176C6 4.97024 8.02162 3 10.5 3ZM10.5 4.27479C8.6996 4.27479 7.25 5.68755 7.25 7.46176C7.25 9.25437 8.7183 10.7252 10.5 10.7252C12.2817 10.7252 13.75 9.25437 13.75 7.46176C13.75 5.68755 12.3004 4.27479 10.5 4.27479Z" fill="#CDCFD3"/>
</svg>
