<svg width="24" height="24" viewBox="0 0 24 24" fill="none" xmlns="http://www.w3.org/2000/svg">
<path fill-rule="evenodd" clip-rule="evenodd" d="M12 2C17.5228 2 22 6.47715 22 12C22 17.5228 17.5228 22 12 22C6.47715 22 2 17.5228 2 12C2 6.47715 6.47715 2 12 2ZM12 3.25C7.16751 3.25 3.25 7.16751 3.25 12C3.25 16.8325 7.16751 20.75 12 20.75C16.8325 20.75 20.75 16.8325 20.75 12C20.75 7.16751 16.8325 3.25 12 3.25ZM12 15.875C12.5525 15.875 13 16.3228 13 16.8749C13 17.427 12.5525 17.875 12 17.875C11.4478 17.875 11 17.427 11 16.8749C11 16.3228 11.4478 15.875 12 15.875ZM12.1241 6.37706C13.9219 6.37459 15.3781 7.97457 15.375 9.7511C15.3727 11.0588 14.7952 11.9079 13.4661 12.7737C12.9574 13.1051 12.6633 13.549 12.6285 14.0286L12.625 14.125V14.75H11.375V14.125C11.375 13.198 11.8619 12.3723 12.6715 11.8024L12.9014 11.6484C13.816 11.0312 14.1236 10.5471 14.125 9.74891C14.1269 8.63943 13.2042 7.62558 12.1259 7.62706C10.9426 7.62876 9.93585 8.59926 9.87766 9.65391L9.875 9.75H8.625C8.625 7.96847 10.2162 6.37979 12.1241 6.37706Z" fill="#CDCFD3"/>
</svg>
