<svg width="24" height="24" viewBox="0 0 24 24" fill="none" xmlns="http://www.w3.org/2000/svg">
<path fill-rule="evenodd" clip-rule="evenodd" d="M6.5 14.9998C7.32835 14.9998 7.99987 15.6715 8 16.4998V20.4998L7.99805 20.577C7.95789 21.3695 7.30255 21.9998 6.5 21.9998H3.5C2.69745 21.9998 2.04211 21.3695 2.00195 20.577L2 20.4998V16.4998C2.00013 15.6715 2.67165 14.9998 3.5 14.9998H6.5ZM3.5 16.2498C3.36201 16.2498 3.25013 16.3618 3.25 16.4998V20.4998C3.25 20.6379 3.36193 20.7498 3.5 20.7498H6.5C6.63807 20.7498 6.75 20.6379 6.75 20.4998V16.4998C6.74989 16.3791 6.66418 16.2784 6.55029 16.2552L6.5 16.2498H3.5Z" fill="#CDCFD3"/>
<path fill-rule="evenodd" clip-rule="evenodd" d="M13.5 9.4998C14.3283 9.4998 14.9999 10.1715 15 10.9998V20.4998L14.998 20.577C14.9579 21.3695 14.3026 21.9998 13.5 21.9998H10.5C9.69745 21.9998 9.04211 21.3695 9.00195 20.577L9 20.4998V10.9998C9.00013 10.1715 9.67165 9.4998 10.5 9.4998H13.5ZM10.5 10.7498C10.362 10.7498 10.2501 10.8618 10.25 10.9998V20.4998C10.25 20.6379 10.3619 20.7498 10.5 20.7498H13.5C13.6381 20.7498 13.75 20.6379 13.75 20.4998V10.9998C13.7499 10.8791 13.6642 10.7784 13.5503 10.7552L13.5 10.7498H10.5Z" fill="#CDCFD3"/>
<path fill-rule="evenodd" clip-rule="evenodd" d="M20.5 12.4998C21.3283 12.4998 21.9999 13.1715 22 13.9998V20.4998L21.998 20.577C21.9579 21.3695 21.3026 21.9998 20.5 21.9998H17.5C16.6974 21.9998 16.0421 21.3695 16.002 20.577L16 20.4998V13.9998C16.0001 13.1715 16.6717 12.4998 17.5 12.4998H20.5ZM17.5 13.7498C17.362 13.7498 17.2501 13.8618 17.25 13.9998V20.4998C17.25 20.6379 17.3619 20.7498 17.5 20.7498H20.5C20.6381 20.7498 20.75 20.6379 20.75 20.4998V13.9998C20.7499 13.8791 20.6642 13.7784 20.5503 13.7552L20.5 13.7498H17.5Z" fill="#CDCFD3"/>
<path d="M11.771 2.02178C11.8585 1.82249 12.1415 1.82249 12.229 2.02178L12.7588 3.22978C12.7942 3.31031 12.8693 3.36629 12.9565 3.37725L14.2334 3.53643C14.4414 3.56236 14.5271 3.81746 14.377 3.96367L13.4165 4.89775C13.3564 4.95622 13.3292 5.04092 13.3447 5.12334L13.5972 6.45879C13.637 6.66983 13.4097 6.82945 13.2246 6.72051L12.127 6.07451C12.0487 6.02845 11.9513 6.02845 11.873 6.07451L10.7754 6.72051C10.5903 6.82945 10.363 6.66983 10.4028 6.45879L10.6553 5.12334C10.6708 5.04092 10.6436 4.95622 10.5835 4.89775L9.62305 3.96367C9.4729 3.81746 9.55858 3.56236 9.7666 3.53643L11.0435 3.37725C11.1307 3.36629 11.2058 3.31031 11.2412 3.22978L11.771 2.02178Z" fill="#CDCFD3"/>
</svg>
