<svg width="24" height="24" viewBox="0 0 24 24" fill="none" xmlns="http://www.w3.org/2000/svg">
<path fill-rule="evenodd" clip-rule="evenodd" d="M3.39951 11.6306L7.79702 7.67109C9.532 6.10891 12.2051 6.24924 13.7676 7.98453C15.2988 9.68512 15.1951 12.2864 13.5574 13.8601L13.4552 13.9551L13.0116 14.3545C12.755 14.5856 12.3595 14.5649 12.1284 14.3082C11.9127 14.0686 11.9163 13.7081 12.1264 13.4733L12.1746 13.4249L12.6182 13.0255C13.8399 11.9256 13.9383 10.0433 12.8381 8.82139C11.7662 7.63083 9.95171 7.50649 8.72928 8.51843L8.63403 8.60068L4.23652 12.5602C3.01485 13.6602 2.91637 15.5425 4.01657 16.7644C5.08856 17.9549 6.90301 18.0793 8.12543 17.0673L8.22069 16.9851L8.41188 16.8129C8.66854 16.5818 9.06397 16.6026 9.2951 16.8593C9.51083 17.0989 9.50719 17.4593 9.29707 17.6942L9.24889 17.7425L9.0577 17.9147C7.32272 19.4769 4.64961 19.3365 3.08715 17.6012C1.55593 15.9006 1.65962 13.2994 3.29733 11.7257L3.39951 11.6306L7.79702 7.67109L3.39951 11.6306ZM14.7514 6.25735L14.9426 6.08519C16.6776 4.52301 19.3507 4.66334 20.9132 6.39864C22.4444 8.09923 22.3407 10.7005 20.703 12.2742L20.6008 12.3692L16.2033 16.3288C14.4683 17.891 11.7952 17.7506 10.2327 16.0153C8.70152 14.3147 8.80521 11.7135 10.4429 10.1398L10.5451 10.0447L10.9887 9.64533C11.2453 9.41424 11.6408 9.435 11.8719 9.6917C12.0876 9.93129 12.084 10.2917 11.8739 10.5266L11.8257 10.5749L11.3821 10.9743C10.1604 12.0743 10.062 13.9566 11.1622 15.1785C12.2341 16.369 14.0486 16.4934 15.271 15.4814L15.3663 15.3992L19.7638 11.4397C20.9855 10.3397 21.0839 8.45739 19.9837 7.2355C18.9117 6.04493 17.0973 5.92059 15.8749 6.93253L15.7796 7.01479L15.5884 7.18694C15.3318 7.41803 14.9363 7.39727 14.7052 7.14057C14.4895 6.90098 14.4931 6.54055 14.7032 6.30567L14.7514 6.25735L14.9426 6.08519L14.7514 6.25735Z" fill="#CDCFD3"/>
</svg>
