<svg width="24" height="24" viewBox="0 0 24 24" fill="none" xmlns="http://www.w3.org/2000/svg">
<path fill-rule="evenodd" clip-rule="evenodd" d="M18.597 2C19.648 2 20.5 2.83947 20.5 3.875V20.125C20.5 21.1605 19.648 22 18.597 22H5.40299C4.352 22 3.5 21.1605 3.5 20.125V3.875C3.5 2.83947 4.352 2 5.40299 2H18.597ZM18.597 3.25H5.40299C5.05266 3.25 4.76866 3.52982 4.76866 3.875V20.125C4.76866 20.4702 5.05266 20.75 5.40299 20.75H18.597C18.9473 20.75 19.2313 20.4702 19.2313 20.125V3.875C19.2313 3.52982 18.9473 3.25 18.597 3.25ZM15.5522 14.875C15.9026 14.875 16.1866 15.1548 16.1866 15.5C16.1866 15.8236 15.937 16.0898 15.6171 16.1218L15.5522 16.125H8.44776C8.09743 16.125 7.81343 15.8452 7.81343 15.5C7.81343 15.1764 8.06304 14.9102 8.3829 14.8782L8.44776 14.875H15.5522ZM15.5522 11.375C15.9026 11.375 16.1866 11.6548 16.1866 12C16.1866 12.3236 15.937 12.5898 15.6171 12.6218L15.5522 12.625H8.44776C8.09743 12.625 7.81343 12.3452 7.81343 12C7.81343 11.6764 8.06304 11.4102 8.3829 11.3782L8.44776 11.375H15.5522ZM8.44776 7.875H15.5522C15.9026 7.875 16.1866 8.15482 16.1866 8.5C16.1866 8.8236 15.937 9.08977 15.6171 9.12177L15.5522 9.125H8.44776C8.09743 9.125 7.81343 8.84518 7.81343 8.5C7.81343 8.1764 8.06304 7.91023 8.3829 7.87823L8.44776 7.875H15.5522H8.44776Z" fill="#CDCFD3"/>
</svg>
