<svg width="24" height="24" viewBox="0 0 24 24" fill="none" xmlns="http://www.w3.org/2000/svg">
<path fill-rule="evenodd" clip-rule="evenodd" d="M7.1709 10.8984C7.99933 10.8984 8.6709 10.2269 8.6709 9.39844C8.6709 8.57001 7.99933 7.89844 7.1709 7.89844C6.34247 7.89844 5.6709 8.57001 5.6709 9.39844C5.6709 10.2269 6.34247 10.8984 7.1709 10.8984Z" stroke="#CDCFD3" stroke-width="1.25"/>
<path fill-rule="evenodd" clip-rule="evenodd" d="M17.0312 10.8984C17.8597 10.8984 18.5312 10.2269 18.5312 9.39844C18.5312 8.57001 17.8597 7.89844 17.0312 7.89844C16.2028 7.89844 15.5312 8.57001 15.5312 9.39844C15.5312 10.2269 16.2028 10.8984 17.0312 10.8984Z" stroke="#CDCFD3" stroke-width="1.25"/>
<path d="M5.18513 16.6772V20.8038C5.18513 21.1193 4.9294 21.375 4.61394 21.375C3.5624 21.375 2.70996 20.5226 2.70996 19.471V16C2.70996 14.3431 4.05311 13 5.70996 13H7.12463C9.26474 13 10.9996 11.2651 10.9996 9.125" stroke="#CDCFD3" stroke-width="1.25" stroke-linecap="round"/>
<path d="M19.0248 16.6772V20.8038C19.0248 21.1193 19.2806 21.375 19.596 21.375C20.6476 21.375 21.5 20.5226 21.5 19.471V16C21.5 14.3431 20.1569 13 18.5 13H16.1166C14.5115 13 13.2103 11.6988 13.2103 10.0938V8.29266C13.2103 7.6823 12.7155 7.1875 12.1052 7.1875C11.4948 7.1875 11 7.6823 11 8.29266V11.6859C11 13.1175 11.7651 14.4399 13.0061 15.1535L14.75 16.1562V21.375" stroke="#CDCFD3" stroke-width="1.25" stroke-linecap="round"/>
<path d="M11.875 14.75C11.5 15.0833 10.45 15.8187 9.25 16.2188V21.375" stroke="#CDCFD3" stroke-width="1.25" stroke-linecap="round"/>
<path d="M12 2.6875L12 5.125" stroke="#CDCFD3" stroke-width="1.25" stroke-linecap="round"/>
<path d="M9.25 3.90625L9.68072 5.38662" stroke="#CDCFD3" stroke-width="1.25" stroke-linecap="round"/>
<path d="M14.6807 3.90625L14.2499 5.38662" stroke="#CDCFD3" stroke-width="1.25" stroke-linecap="round"/>
</svg>
