<svg width="24" height="24" viewBox="0 0 24 24" fill="none" xmlns="http://www.w3.org/2000/svg">
<path fill-rule="evenodd" clip-rule="evenodd" d="M11.8228 6.55748L4.06179 16.8732C4.02215 16.9114 4 16.9625 4 17.0156C4 17.0687 4.02215 17.1197 4.06179 17.1579C4.1058 17.1696 4.15245 17.1696 4.19645 17.1579H19.7674C19.8259 17.1579 19.8819 17.1363 19.9232 17.0979C19.9645 17.0594 19.9878 17.0073 19.9878 16.9529C19.9958 16.9349 20 16.9156 20 16.896C20 16.8765 19.9958 16.8571 19.9878 16.8391L12.1778 6.55748C12.1367 6.52061 12.0819 6.5 12.0248 6.5C11.9677 6.5 11.9128 6.52061 11.8718 6.55748" fill="#EF3340"/>
</svg>
