<svg preserveAspectRatio="none" width="100%" height="100%" overflow="visible" style="display: block;" viewBox="0 0 15 11.4375" fill="none" xmlns="http://www.w3.org/2000/svg">
<g id="icon">
<path fill-rule="evenodd" clip-rule="evenodd" d="M2.71948 6C4.22131 6.00005 5.4386 7.21726 5.4386 8.71875C5.4386 10.2202 4.22131 11.4374 2.71948 11.4375C1.21761 11.4375 0 10.2203 0 8.71875C0 7.21723 1.21761 6 2.71948 6ZM2.71948 6.9375C1.73552 6.93753 0.937866 7.73501 0.937866 8.71875C0.937866 9.70249 1.73552 10.5 2.71948 10.5C3.70347 10.5 4.5011 9.70251 4.5011 8.71875C4.5011 7.73499 3.70347 6.9375 2.71948 6.9375Z" fill="var(--fill-0, black)"/>
<path fill-rule="evenodd" clip-rule="evenodd" d="M12.2809 6C13.7827 6.00005 15 7.21726 15 8.71875C15 10.2202 13.7827 11.4374 12.2809 11.4375C10.779 11.4375 9.5614 10.2203 9.5614 8.71875C9.5614 7.21723 10.779 6 12.2809 6ZM12.2805 6.9375C11.2966 6.93755 10.4989 7.73503 10.4989 8.71875C10.4989 9.70247 11.2966 10.4999 12.2805 10.5C13.2645 10.5 14.0621 9.70251 14.0621 8.71875C14.0621 7.73499 13.2645 6.9375 12.2805 6.9375Z" fill="var(--fill-0, black)"/>
<path d="M9.08276 2.25C9.63834 2.25 10.1517 2.53898 10.4407 3.00879L10.4824 3.08057L10.9677 3.97046C11.0731 4.16371 11.2677 4.29021 11.4844 4.30994L11.5441 4.3125H13.2202V5.25H11.5441C10.9885 5.25 10.4751 4.96102 10.1862 4.49121L10.1444 4.41943L9.65918 3.52954C9.55375 3.3363 9.35914 3.2098 9.14246 3.19006L9.08276 3.1875H6.1311C5.76858 3.1875 5.47485 3.48131 5.47485 3.84375C5.47485 3.9444 5.49769 4.04358 5.54187 4.13342L5.57117 4.18616L6.70349 6.03845C6.8395 6.26091 6.91868 6.51309 6.93457 6.77234L6.9375 6.86975V9.5625H6V6.86975C6 6.7691 5.97679 6.66992 5.93262 6.58008L5.90369 6.52734L4.771 4.67505C4.61799 4.42479 4.53699 4.13706 4.53699 3.84375C4.53699 2.98945 5.20931 2.29213 6.05383 2.25183L6.1311 2.25H9.08276Z" fill="var(--fill-0, black)"/>
<path d="M7.61353 3.98438L8.98682 4.53296C9.18169 4.61086 9.2991 4.80758 9.27942 5.0127L9.27246 5.0603L8.80554 7.3949L7.88599 7.21106L8.27637 5.25879L7.26562 4.85486L7.61353 3.98438Z" fill="var(--fill-0, black)"/>
<path fill-rule="evenodd" clip-rule="evenodd" d="M12.3761 0C13.2565 0 13.9702 0.713546 13.9702 1.59375C13.9702 2.47395 13.2565 3.1875 12.3761 3.1875C11.4957 3.1875 10.782 2.47395 10.782 1.59375C10.782 0.713548 11.4957 2.41543e-06 12.3761 0ZM12.3761 0.9375C12.0136 0.937572 11.7198 1.23136 11.7198 1.59375C11.7198 1.95614 12.0136 2.24993 12.3761 2.25C12.7386 2.25 13.0327 1.95619 13.0327 1.59375C13.0327 1.23131 12.7386 0.9375 12.3761 0.9375Z" fill="var(--fill-0, black)"/>
</g>
</svg>
