<svg preserveAspectRatio="none" width="100%" height="100%" overflow="visible" style="display: block;" viewBox="0 0 9.94043 14.9985" fill="none" xmlns="http://www.w3.org/2000/svg">
<g id="icon">
<path d="M3.37537 9.75586L4.13635 10.303L0.761353 14.9985L0 14.4514L3.37537 9.75586Z" fill="var(--fill-0, black)"/>
<path d="M3.34973 3.97485C4.08526 3.97493 4.68613 4.55211 4.72412 5.2782L4.72595 5.35107V7.55676C4.72595 7.72331 4.78936 7.88269 4.90173 8.00354L4.94604 8.04712L6.68848 9.59729C6.82866 9.72199 6.94579 9.87034 7.03418 10.0353L7.07593 10.1191L9.15051 14.6049L8.2998 14.9985L6.22485 10.5125C6.19649 10.4512 6.15893 10.3947 6.11353 10.3451L6.06555 10.2979L4.32275 8.74768C4.00548 8.46544 3.81505 8.06907 3.79102 7.64758L3.78845 7.55676V5.35107C3.7884 5.10882 3.59198 4.91243 3.34973 4.91235C3.28392 4.91235 3.21902 4.92732 3.16003 4.95557L3.11682 4.979L2.13831 5.59094C2.00261 5.6758 1.90335 5.80697 1.85779 5.95898L1.84314 6.01721L1.20667 9.1582L0.287842 8.9718L0.924316 5.83081C1.00541 5.43067 1.23681 5.07802 1.56885 4.84424L1.64136 4.7959L2.61987 4.18433C2.83866 4.04753 3.0917 3.97485 3.34973 3.97485Z" fill="var(--fill-0, black)"/>
<path d="M7.03491 6.01978C7.11829 6.26983 7.34234 6.44405 7.60144 6.46619L7.65747 6.46838H9.94043V7.40588H7.65747C6.99794 7.40584 6.40965 7.00006 6.17249 6.39038L6.14575 6.31604L5.50378 4.39087L6.39331 4.09424L7.03491 6.01978Z" fill="var(--fill-0, black)"/>
<path fill-rule="evenodd" clip-rule="evenodd" d="M4.82007 0C5.70027 0 6.41382 0.713546 6.41382 1.59375C6.41382 2.47395 5.70027 3.1875 4.82007 3.1875C3.93986 3.1875 3.22632 2.47395 3.22632 1.59375C3.22632 0.713546 3.93986 0 4.82007 0ZM4.82007 0.9375C4.45763 0.9375 4.16382 1.23131 4.16382 1.59375C4.16382 1.95619 4.45763 2.25 4.82007 2.25C5.18251 2.25 5.47632 1.95619 5.47632 1.59375C5.47632 1.23131 5.18251 0.9375 4.82007 0.9375Z" fill="var(--fill-0, black)"/>
</g>
</svg>
