<svg preserveAspectRatio="none" width="100%" height="100%" overflow="visible" style="display: block;" viewBox="0 0 15.0011 14.9711" fill="none" xmlns="http://www.w3.org/2000/svg">
<g id="icon">
<path fill-rule="evenodd" clip-rule="evenodd" d="M8.88025 3.87529L10.2166 4.44438C10.5943 4.60531 10.8954 4.90591 11.057 5.28337L12.037 7.57329H12.7511V6.35271C12.7512 6.14567 12.919 5.97773 13.1261 5.97771H13.8761C14.0832 5.97771 14.251 6.14565 14.2511 6.35271V7.57329L14.5323 7.57366C14.775 7.57366 14.9748 7.75814 14.9989 7.99443L15.0011 8.04241C15.0011 8.2851 14.8167 8.48457 14.5803 8.50859L14.5323 8.51116L14.2511 8.51079V9.72771C14.251 9.93476 14.0832 10.1027 13.8761 10.1027H13.1261C12.9191 10.1027 12.7512 9.93474 12.7511 9.72771V8.51079H11.4353L11.4214 8.51702L11.4188 8.51079H8.1947L10.9666 14.5818L10.1136 14.9711L7.17627 8.53716L7.16528 8.51079H2.2511V9.72991C2.2511 9.93701 2.08321 10.1049 1.8761 10.1049H1.1261C0.919013 10.1049 0.751099 9.937 0.751099 9.72991V8.51079L0.46875 8.51116C0.22606 8.51116 0.0265866 8.32673 0.00256348 8.09038L0 8.04241C6.44908e-05 7.79978 0.184476 7.60025 0.420776 7.57622L0.46875 7.57366L0.751099 7.57329V6.35491C0.751168 6.14787 0.919055 5.97993 1.1261 5.97991H1.8761C2.08316 5.97991 2.25103 6.14786 2.2511 6.35491V7.57329H2.81689L4.16748 5.09514C4.37497 4.71451 4.72786 4.43583 5.14343 4.32134L5.22766 4.30046L6.06335 4.11846C6.91151 3.9337 7.74905 4.47151 7.93396 5.31963C7.95192 5.40206 7.96313 5.48596 7.96765 5.57012L7.96985 5.65434V7.57329H11.0175L10.1953 5.65251C10.1288 5.49711 10.0048 5.37308 9.84924 5.30681L8.51294 4.73772L8.88025 3.87529ZM6.31714 5.02519L6.26294 5.03472L5.42725 5.21672C5.26191 5.25275 5.1177 5.35115 5.02368 5.48992L4.99072 5.54412L3.88477 7.57329H7.03235L7.03271 5.65471C7.03271 5.60938 7.02771 5.56388 7.01807 5.51958C6.94736 5.19535 6.64027 4.98326 6.31714 5.02519Z" fill="var(--fill-0, black)"/>
<path d="M5.77295 9.33403L6.66614 9.61968L4.96289 14.9396L4.07007 14.6536L5.77295 9.33403Z" fill="var(--fill-0, black)"/>
<path fill-rule="evenodd" clip-rule="evenodd" d="M5.98425 1.10527C6.33902 0.0250939 7.65222 -0.352262 8.52686 0.374682C9.0189 0.784358 9.21746 1.47434 9.01758 2.08232C8.66223 3.16264 7.34852 3.54033 6.47424 2.81291C5.98211 2.40368 5.78427 1.71319 5.98425 1.10527ZM7.9281 1.09575C7.56233 0.791729 7.02367 0.946431 6.87524 1.39824C6.79544 1.64084 6.87821 1.92937 7.07446 2.09258C7.44011 2.39685 7.97898 2.24181 8.12769 1.78972C8.20727 1.54741 8.12443 1.25922 7.9281 1.09575Z" fill="var(--fill-0, black)"/>
</g>
</svg>
