<svg preserveAspectRatio="none" width="100%" height="100%" overflow="visible" style="display: block;" viewBox="0 0 14.9982 10.2927" fill="none" xmlns="http://www.w3.org/2000/svg">
<g id="icon">
<path d="M12.1875 8.23315C12.9614 8.23315 13.372 8.62701 13.6714 8.91431L13.6827 8.92493C13.9678 9.19838 14.1426 9.35632 14.5302 9.35632C14.7887 9.35635 14.9982 9.56619 14.9982 9.82471C14.9981 10.0832 14.7886 10.2927 14.5302 10.2927C13.7559 10.2927 13.3454 9.89897 13.0459 9.61157L13.0345 9.60095C12.7493 9.32741 12.5747 9.16956 12.1875 9.16956C11.8004 9.16959 11.6258 9.32719 11.3408 9.60059L11.3295 9.61157C11.0301 9.89891 10.6196 10.2927 9.84558 10.2927C9.07171 10.2927 8.66144 9.89889 8.36206 9.61157L8.35071 9.60059C8.06563 9.3271 7.89085 9.16956 7.50366 9.16956C7.11582 9.16957 6.94081 9.3275 6.65552 9.60095L6.64453 9.61157C6.34482 9.89895 5.93395 10.2927 5.15955 10.2927C4.38481 10.2927 3.97417 9.89901 3.67419 9.61157C3.67048 9.60801 3.66652 9.60448 3.66284 9.60095C3.37742 9.32756 3.20241 9.1696 2.81433 9.16956C2.42584 9.16956 2.25052 9.32761 1.96509 9.60095C1.96141 9.60448 1.95745 9.60801 1.95374 9.61157C1.65372 9.899 1.24282 10.2927 0.468018 10.2927C0.209561 10.2927 5.23632e-05 10.0832 0 9.82471C0 9.56621 0.209529 9.35638 0.468018 9.35632C0.856523 9.35632 1.03181 9.19828 1.31726 8.92493C1.32095 8.92139 1.32489 8.91788 1.32861 8.91431C1.62863 8.62688 2.03953 8.23315 2.81433 8.23315C3.58872 8.23321 3.99946 8.6266 4.29932 8.91394C4.3031 8.91757 4.30692 8.92133 4.31067 8.92493C4.59599 9.19822 4.77116 9.35628 5.15955 9.35632C5.54742 9.35632 5.7224 9.19837 6.00769 8.92493C6.01141 8.92137 6.01529 8.9179 6.01904 8.91431C6.31874 8.62693 6.72929 8.23317 7.50366 8.23315C8.27768 8.23315 8.68815 8.62697 8.98755 8.91431L8.9989 8.92529C9.2839 9.19869 9.4585 9.3563 9.84558 9.35632C10.2328 9.35632 10.4076 9.19877 10.6926 8.92529L10.704 8.91431C11.0034 8.62699 11.4136 8.2332 12.1875 8.23315Z" fill="var(--fill-0, black)"/>
<path d="M12.1875 4.93286C12.9614 4.93286 13.372 5.32672 13.6714 5.61401L13.6827 5.62463C13.9678 5.89808 14.1426 6.05603 14.5302 6.05603C14.7887 6.05606 14.9982 6.2659 14.9982 6.52441C14.9981 6.78289 14.7886 6.9924 14.5302 6.99243C13.7559 6.99243 13.3454 6.59867 13.0459 6.31128L13.0345 6.30066C12.7493 6.02712 12.5747 5.86926 12.1875 5.86926C11.8004 5.8693 11.6258 6.0269 11.3408 6.30029L11.3295 6.31128C11.0301 6.59862 10.6196 6.99243 9.84558 6.99243C9.07171 6.9924 8.66144 6.5986 8.36206 6.31128L8.35071 6.30029C8.06563 6.02681 7.89085 5.86926 7.50366 5.86926C7.11582 5.86928 6.94081 6.02721 6.65552 6.30066L6.64453 6.31128C6.34482 6.59866 5.93395 6.99243 5.15955 6.99243C4.38481 6.99237 3.97417 6.59872 3.67419 6.31128C3.67048 6.30772 3.66652 6.30418 3.66284 6.30066C3.37742 6.02727 3.20241 5.86931 2.81433 5.86926C2.42584 5.86926 2.25052 6.02732 1.96509 6.30066C1.96141 6.30419 1.95745 6.30772 1.95374 6.31128C1.65372 6.59871 1.24282 6.99243 0.468018 6.99243C0.209561 6.99238 5.23632e-05 6.78287 0 6.52441C0 6.26591 0.209529 6.05609 0.468018 6.05603C0.856523 6.05603 1.03181 5.89799 1.31726 5.62463C1.32095 5.6211 1.32489 5.61758 1.32861 5.61401C1.62863 5.32659 2.03953 4.93286 2.81433 4.93286C3.58872 4.93291 3.99946 5.32631 4.29932 5.61365C4.3031 5.61727 4.30692 5.62104 4.31067 5.62463C4.59599 5.89793 4.77116 6.05598 5.15955 6.05603C5.54742 6.05603 5.7224 5.89808 6.00769 5.62463C6.01141 5.62107 6.01529 5.61761 6.01904 5.61401C6.31874 5.32664 6.72929 4.93288 7.50366 4.93286C8.27768 4.93286 8.68815 5.32668 8.98755 5.61401L8.9989 5.625C9.2839 5.8984 9.4585 6.056 9.84558 6.05603C10.2328 6.05603 10.4076 5.89847 10.6926 5.625L10.704 5.61401C11.0034 5.3267 11.4136 4.9329 12.1875 4.93286Z" fill="var(--fill-0, black)"/>
<path d="M5.13611 1.63257C5.82716 1.17937 6.75001 1.33057 7.2605 1.98047L8.18262 3.15417L7.44653 3.73242L6.52441 2.55872C6.3142 2.2911 5.93409 2.22889 5.64954 2.41553L3.427 3.87341L2.91357 3.09045L5.13611 1.63257Z" fill="var(--fill-0, black)"/>
<path fill-rule="evenodd" clip-rule="evenodd" d="M10.2462 0C11.1266 5.03026e-06 11.8392 0.714429 11.8392 1.59448C11.8392 2.47461 11.1267 3.18933 10.2462 3.18933C9.36576 3.18933 8.6532 2.47461 8.6532 1.59448C8.65328 0.714426 9.36581 0 10.2462 0ZM10.2462 0.936401C9.88401 0.936401 9.58931 1.23037 9.58923 1.59448C9.58923 1.95867 9.88396 2.25293 10.2462 2.25293C10.6085 2.25292 10.9032 1.95867 10.9032 1.59448C10.9031 1.23037 10.6084 0.936406 10.2462 0.936401Z" fill="var(--fill-0, black)"/>
</g>
</svg>
