<svg preserveAspectRatio="none" width="100%" height="100%" overflow="visible" style="display: block;" viewBox="0 0 20 19" fill="none" xmlns="http://www.w3.org/2000/svg">
<path id="icon" fill-rule="evenodd" clip-rule="evenodd" d="M3.75 0C3.33579 0 3 0.335786 3 0.75V2H2C0.895431 2 0 2.89543 0 4V17C0 18.1046 0.895431 19 2 19H18C19.1046 19 20 18.1046 20 17V4C20 2.89543 19.1046 2 18 2H17V0.75C17 0.335786 16.6642 0 16.25 0C15.8358 0 15.5 0.335786 15.5 0.75V2H10.75V0.75C10.75 0.335786 10.4142 0 10 0C9.58579 0 9.25 0.335786 9.25 0.75V2H4.5V0.75C4.5 0.335786 4.16421 0 3.75 0ZM9.25 2H10.75V3.25C10.75 3.66421 10.4142 4 10 4C9.58579 4 9.25 3.66421 9.25 3.25V2ZM15.5 2V3.25C15.5 3.66421 15.8358 4 16.25 4C16.6642 4 17 3.66421 17 3.25V2H15.5ZM4.5 2V3.25C4.5 3.66421 4.16421 4 3.75 4C3.33579 4 3 3.66421 3 3.25V2H4.5ZM9 7C9 7.55228 8.55228 8 8 8C7.44772 8 7 7.55228 7 7C7 6.44772 7.44772 6 8 6C8.55228 6 9 6.44772 9 7ZM13 7C13 7.55228 12.5523 8 12 8C11.4477 8 11 7.55228 11 7C11 6.44772 11.4477 6 12 6C12.5523 6 13 6.44772 13 7ZM16 8C16.5523 8 17 7.55228 17 7C17 6.44772 16.5523 6 16 6C15.4477 6 15 6.44772 15 7C15 7.55228 15.4477 8 16 8ZM5 11C5 11.5523 4.55228 12 4 12C3.44772 12 3 11.5523 3 11C3 10.4477 3.44772 10 4 10C4.55228 10 5 10.4477 5 11ZM8 12C8.55228 12 9 11.5523 9 11C9 10.4477 8.55228 10 8 10C7.44772 10 7 10.4477 7 11C7 11.5523 7.44772 12 8 12ZM13 11C13 11.5523 12.5523 12 12 12C11.4477 12 11 11.5523 11 11C11 10.4477 11.4477 10 12 10C12.5523 10 13 10.4477 13 11ZM16 12C16.5523 12 17 11.5523 17 11C17 10.4477 16.5523 10 16 10C15.4477 10 15 10.4477 15 11C15 11.5523 15.4477 12 16 12ZM5 15C5 15.5523 4.55228 16 4 16C3.44772 16 3 15.5523 3 15C3 14.4477 3.44772 14 4 14C4.55228 14 5 14.4477 5 15ZM8 16C8.55228 16 9 15.5523 9 15C9 14.4477 8.55228 14 8 14C7.44772 14 7 14.4477 7 15C7 15.5523 7.44772 16 8 16ZM13 15C13 15.5523 12.5523 16 12 16C11.4477 16 11 15.5523 11 15C11 14.4477 11.4477 14 12 14C12.5523 14 13 14.4477 13 15ZM16 16C16.5523 16 17 15.5523 17 15C17 14.4477 16.5523 14 16 14C15.4477 14 15 14.4477 15 15C15 15.5523 15.4477 16 16 16Z" fill="var(--fill-0, #CDCFD3)"/>
</svg>
