<svg preserveAspectRatio="xMidYMid meet" width="100%" height="100%" overflow="visible" style="display: block;" viewBox="0 0 20.25 19.125" fill="none" xmlns="http://www.w3.org/2000/svg">
<g id="icon">
<path fill-rule="evenodd" clip-rule="evenodd" d="M0 4C0 2.55025 1.17525 1.375 2.625 1.375H17.625C19.0747 1.375 20.25 2.55025 20.25 4V16.5C20.25 17.9497 19.0747 19.125 17.625 19.125H2.625C1.17525 19.125 0 17.9497 0 16.5V4ZM2.625 2.625C1.86561 2.625 1.25 3.24061 1.25 4V16.5C1.25 17.2594 1.86561 17.875 2.625 17.875H17.625C18.3844 17.875 19 17.2594 19 16.5V4C19 3.24061 18.3844 2.625 17.625 2.625H2.625Z" fill="#CDCFD3"/>
<path d="M4.125 0.625C4.125 0.279822 4.40482 0 4.75 0C5.09518 0 5.375 0.279822 5.375 0.625V3.375C5.375 3.72018 5.09518 4 4.75 4C4.40482 4 4.125 3.72018 4.125 3.375V0.625Z" fill="var(--fill-0, #CDCFD3)"/>
<path d="M9.625 0.625C9.625 0.279822 9.90482 0 10.25 0C10.5952 0 10.875 0.279822 10.875 0.625V3.375C10.875 3.72018 10.5952 4 10.25 4C9.90482 4 9.625 3.72018 9.625 3.375V0.625Z" fill="var(--fill-0, #CDCFD3)"/>
<path d="M14.875 0.625C14.875 0.279822 15.1548 0 15.5 0C15.8452 0 16.125 0.279822 16.125 0.625V3.375C16.125 3.72018 15.8452 4 15.5 4C15.1548 4 14.875 3.72018 14.875 3.375V0.625Z" fill="var(--fill-0, #CDCFD3)"/>
<path d="M9.125 7C9.125 7.55229 8.67729 8 8.125 8C7.57271 8 7.125 7.55229 7.125 7C7.125 6.44771 7.57271 6 8.125 6C8.67729 6 9.125 6.44771 9.125 7Z" fill="var(--fill-0, #CDCFD3)"/>
<path d="M13.125 7C13.125 7.55229 12.6773 8 12.125 8C11.5727 8 11.125 7.55229 11.125 7C11.125 6.44771 11.5727 6 12.125 6C12.6773 6 13.125 6.44771 13.125 7Z" fill="var(--fill-0, #CDCFD3)"/>
<path d="M16.125 8C16.6773 8 17.125 7.55229 17.125 7C17.125 6.44771 16.6773 6 16.125 6C15.5727 6 15.125 6.44771 15.125 7C15.125 7.55229 15.5727 8 16.125 8Z" fill="var(--fill-0, #CDCFD3)"/>
<path d="M5.125 11C5.125 11.5523 4.67728 12 4.125 12C3.57272 12 3.125 11.5523 3.125 11C3.125 10.4477 3.57272 10 4.125 10C4.67728 10 5.125 10.4477 5.125 11Z" fill="var(--fill-0, #CDCFD3)"/>
<path d="M8.125 12C8.67729 12 9.125 11.5523 9.125 11C9.125 10.4477 8.67729 10 8.125 10C7.57271 10 7.125 10.4477 7.125 11C7.125 11.5523 7.57271 12 8.125 12Z" fill="var(--fill-0, #CDCFD3)"/>
<path d="M13.125 11C13.125 11.5523 12.6773 12 12.125 12C11.5727 12 11.125 11.5523 11.125 11C11.125 10.4477 11.5727 10 12.125 10C12.6773 10 13.125 10.4477 13.125 11Z" fill="var(--fill-0, #CDCFD3)"/>
<path d="M16.125 12C16.6773 12 17.125 11.5523 17.125 11C17.125 10.4477 16.6773 10 16.125 10C15.5727 10 15.125 10.4477 15.125 11C15.125 11.5523 15.5727 12 16.125 12Z" fill="var(--fill-0, #CDCFD3)"/>
<path d="M5.125 15C5.125 15.5523 4.67728 16 4.125 16C3.57272 16 3.125 15.5523 3.125 15C3.125 14.4477 3.57272 14 4.125 14C4.67728 14 5.125 14.4477 5.125 15Z" fill="var(--fill-0, #CDCFD3)"/>
<path d="M8.125 16C8.67729 16 9.125 15.5523 9.125 15C9.125 14.4477 8.67729 14 8.125 14C7.57271 14 7.125 14.4477 7.125 15C7.125 15.5523 7.57271 16 8.125 16Z" fill="var(--fill-0, #CDCFD3)"/>
<path d="M13.125 15C13.125 15.5523 12.6773 16 12.125 16C11.5727 16 11.125 15.5523 11.125 15C11.125 14.4477 11.5727 14 12.125 14C12.6773 14 13.125 14.4477 13.125 15Z" fill="var(--fill-0, #CDCFD3)"/>
<path d="M16.125 16C16.6773 16 17.125 15.5523 17.125 15C17.125 14.4477 16.6773 14 16.125 14C15.5727 14 15.125 14.4477 15.125 15C15.125 15.5523 15.5727 16 16.125 16Z" fill="var(--fill-0, #CDCFD3)"/>
</g>
</svg>
