<svg preserveAspectRatio="xMidYMid meet" width="100%" height="100%" overflow="visible" style="display: block;" viewBox="0 0 20 19" fill="none" xmlns="http://www.w3.org/2000/svg">
<path id="icon" fill-rule="evenodd" clip-rule="evenodd" d="M4 0.75C4 0.335786 4.33579 0 4.75 0C5.16421 0 5.5 0.335786 5.5 0.75V2H4V0.75ZM16 2H18C19.1046 2 20 2.89543 20 4V17C20 18.1046 19.1046 19 18 19H2C0.895431 19 0 18.1046 0 17V4C0 2.89543 0.895431 2 2 2H4V3.25C4 3.66421 4.33579 4 4.75 4C5.16421 4 5.5 3.66421 5.5 3.25V2H14.5V3.25C14.5 3.66421 14.8358 4 15.25 4C15.6642 4 16 3.66421 16 3.25V2ZM16 2H14.5V0.75C14.5 0.335786 14.8358 0 15.25 0C15.6642 0 16 0.335786 16 0.75V2ZM6.89465 14.12C5.66465 14.12 4.75465 13.65 4.26465 13.05L5.00465 12.12C5.46465 12.6 6.19465 12.88 6.84465 12.88C7.65465 12.88 8.10465 12.53 8.10465 12.02C8.10465 11.48 7.69465 11.23 6.76465 11.23C6.48465 11.23 6.03465 11.23 5.93465 11.24V9.99998C6.05465 10.01 6.51465 10.01 6.76465 10.01C7.50465 10.01 7.99465 9.76998 7.99465 9.26998C7.99465 8.73998 7.45465 8.46998 6.75465 8.46998C6.11465 8.46998 5.52465 8.71998 5.05465 9.16998L4.35465 8.28998C4.89465 7.67998 5.73465 7.22998 6.90465 7.22998C8.46465 7.22998 9.42465 7.92998 9.42465 9.03998C9.42465 9.87998 8.70465 10.43 7.96465 10.56C8.64465 10.63 9.52465 11.16 9.52465 12.16C9.52465 13.31 8.49465 14.12 6.89465 14.12ZM12.8338 14.12C10.9238 14.12 10.0738 12.39 10.0738 10.67C10.0738 8.94998 10.9238 7.22998 12.8338 7.22998C14.7338 7.22998 15.5938 8.94998 15.5938 10.67C15.5938 12.39 14.7338 14.12 12.8338 14.12ZM12.8338 12.86C13.7838 12.86 14.1438 11.9 14.1438 10.67C14.1438 9.43998 13.7838 8.48998 12.8338 8.48998C11.8738 8.48998 11.5138 9.43998 11.5138 10.67C11.5138 11.9 11.8738 12.86 12.8338 12.86Z" fill="var(--fill-0, #303030)"/>
</svg>
