<svg preserveAspectRatio="xMidYMid meet" width="100%" height="100%" overflow="visible" style="display: block;" viewBox="0 0 32 40" fill="none" xmlns="http://www.w3.org/2000/svg">
<path id="icon" fill-rule="evenodd" clip-rule="evenodd" d="M27.9226 11.25C34.2078 23.9167 34.1654 36.6667 21.0853 40C27.5404 35.9167 26.6486 28.25 20.5757 22.5833C18.1126 20.25 17.3057 19.375 18.3674 15.9167C13.6535 16.4167 9.02449 23.4583 12.5068 27.1667C10.5533 27.9167 8.17514 25.2083 8.76968 22.75C5.37227 29.5417 4.90512 36 10.341 40C-4.14049 35.4167 -2.14451 20.6667 8.51488 10.9167C12.7192 7.20833 13.9083 5.45833 12.1671 0C19.3866 1.95833 28.4322 13 21.7223 18.5833C24.8649 19.6667 28.4322 15.6667 27.9226 11.25Z" fill="var(--fill-0, #303030)"/>
</svg>
