<svg preserveAspectRatio="xMidYMid meet" width="100%" height="100%" overflow="visible" style="display: block;" viewBox="0 0 30 22.875" fill="none" xmlns="http://www.w3.org/2000/svg">
<g id="icon">
<path fill-rule="evenodd" clip-rule="evenodd" d="M5.43896 12C8.44262 12.0001 10.8772 14.4345 10.8772 17.4375C10.8772 20.4405 8.44262 22.8749 5.43896 22.875C2.43522 22.875 0 20.4405 0 17.4375C0 14.4345 2.43522 12 5.43896 12ZM5.43896 13.875C3.47104 13.8751 1.87573 15.47 1.87573 17.4375C1.87573 19.405 3.47104 20.9999 5.43896 21C7.40694 21 9.0022 19.405 9.0022 17.4375C9.0022 15.47 7.40694 13.875 5.43896 13.875Z" fill="var(--fill-0, white)"/>
<path fill-rule="evenodd" clip-rule="evenodd" d="M24.5618 12C27.5654 12.0001 30 14.4345 30 17.4375C30 20.4405 27.5654 22.8749 24.5618 22.875C21.558 22.875 19.1228 20.4405 19.1228 17.4375C19.1228 14.4345 21.558 12 24.5618 12ZM24.561 13.875C22.5932 13.8751 20.9978 15.4701 20.9978 17.4375C20.9978 19.4049 22.5932 20.9999 24.561 21C26.529 21 28.1243 19.405 28.1243 17.4375C28.1243 15.47 26.529 13.875 24.561 13.875Z" fill="var(--fill-0, white)"/>
<path d="M18.1655 4.5C19.2767 4.5 20.3035 5.07795 20.8813 6.01758L20.9648 6.16113L21.9353 7.94092C22.1462 8.32741 22.5354 8.58043 22.9688 8.61987L23.0881 8.625H26.4404V10.5H23.0881C21.977 10.5 20.9502 9.92205 20.3723 8.98242L20.2888 8.83887L19.3184 7.05908C19.1075 6.6726 18.7183 6.41959 18.2849 6.38013L18.1655 6.375H12.2622C11.5372 6.375 10.9497 6.96263 10.9497 7.6875C10.9497 7.88879 10.9954 8.08715 11.0837 8.26685L11.1423 8.37231L13.407 12.0769C13.679 12.5218 13.8374 13.0262 13.8691 13.5447L13.875 13.7395V19.125H12V13.7395C12 13.5382 11.9536 13.3398 11.8652 13.1602L11.8074 13.0547L9.54199 9.3501C9.23597 8.84957 9.07397 8.27413 9.07397 7.6875C9.07397 5.97889 10.4186 4.58426 12.1077 4.50366L12.2622 4.5H18.1655Z" fill="var(--fill-0, white)"/>
<path d="M15.2271 7.96875L17.9736 9.06592C18.3634 9.22173 18.5982 9.61517 18.5588 10.0254L18.5449 10.1206L17.6111 14.7898L15.772 14.4221L16.5527 10.5176L14.5312 9.70972L15.2271 7.96875Z" fill="var(--fill-0, white)"/>
<path fill-rule="evenodd" clip-rule="evenodd" d="M24.7522 0C26.513 0 27.9404 1.42709 27.9404 3.1875C27.9404 4.94791 26.513 6.375 24.7522 6.375C22.9914 6.375 21.564 4.9479 21.564 3.1875C21.564 1.4271 22.9914 4.83086e-06 24.7522 0ZM24.7522 1.875C24.0273 1.87514 23.4397 2.46272 23.4397 3.1875C23.4397 3.91228 24.0273 4.49986 24.7522 4.5C25.4772 4.5 26.0654 3.91237 26.0654 3.1875C26.0654 2.46263 25.4772 1.875 24.7522 1.875Z" fill="var(--fill-0, white)"/>
</g>
</svg>
