<svg preserveAspectRatio="xMidYMid meet" width="100%" height="100%" overflow="visible" style="display: block;" viewBox="0 0 35.5 40.25" fill="none" xmlns="http://www.w3.org/2000/svg">
<path id="icon" fill-rule="evenodd" clip-rule="evenodd" d="M20.5 0C21.3284 0 22 0.671573 22 1.5C22 2.2797 21.4051 2.92045 20.6445 2.99313L20.5 3H19L19.0005 5.31344L19.8477 5.39193C20.8942 5.49902 21.3036 5.58862 21.2838 5.66075C29.1291 7.38892 35 14.3841 35 22.75C35 27.0422 33.4546 30.9735 30.8899 34.018L30.9349 34.0636L29.8743 35.1243C29.7108 35.2877 29.5441 35.448 29.3743 35.6049C29.1122 35.8473 28.8438 36.0807 28.569 36.3054L28.4226 36.4235C28.2353 36.5737 28.045 36.7197 27.8519 36.8617L27.4728 37.132L27.252 37.2829L26.8781 37.5281L26.5688 37.7203L26.2577 37.9043L25.8119 38.1541L25.3803 38.3795L25.0068 38.5626L24.5767 38.76L24.3967 38.8384C24.1597 38.9402 23.9199 39.0369 23.6775 39.1284L23.2217 39.2927C22.0826 39.6871 20.89 39.9667 19.6577 40.1183L19.211 40.1674L18.734 40.207L18.1372 40.2386L17.8758 40.246L17.5 40.25C7.83531 40.25 0 32.4147 0 22.75C0 14.3837 5.87142 7.38833 13.7183 5.6597C13.6974 5.57056 14.3295 5.45517 16.0005 5.31335L16 3H14.5C13.6716 3 13 2.32843 13 1.5C13 0.720304 13.5949 0.0795513 14.3555 0.00686658L14.5 0H20.5ZM18.999 8.32666L18.9995 22.1287L28.7583 31.8878C30.7849 29.394 31.9995 26.2138 31.9995 22.7501C31.9995 15.2485 26.3024 9.07707 18.999 8.32666ZM30.9087 4.30645L31.0259 4.40569L35.0259 8.15569C35.6303 8.72229 35.6609 9.67154 35.0943 10.2759C34.5631 10.8425 33.6956 10.9048 33.0913 10.4435L32.9741 10.3443L28.9741 6.59431C28.3697 6.02771 28.3391 5.07846 28.9057 4.47409C29.4369 3.90749 30.3044 3.84517 30.9087 4.30645Z" fill="var(--fill-0, #303030)"/>
</svg>
