<svg preserveAspectRatio="none" width="100%" height="100%" overflow="visible" style="display: block;" viewBox="0 0 13.3333 13.3333" fill="none" xmlns="http://www.w3.org/2000/svg">
<path id="icon" fill-rule="evenodd" clip-rule="evenodd" d="M6.66667 0C10.3486 0 13.3333 2.98477 13.3333 6.66667V10.6667L13.3298 10.804C13.2606 12.1675 12.1675 13.2606 10.804 13.3298L10.6667 13.3333H10L9.96582 13.3317C9.80901 13.3157 9.68426 13.191 9.66829 13.0342L9.66667 13V8.33333C9.66667 8.16077 9.79778 8.01874 9.96582 8.00163L10 8H12.5V6.66667C12.5 3.44501 9.88833 0.833333 6.66667 0.833333C3.44501 0.833333 0.833333 3.44501 0.833333 6.66667V8H3.33333L3.36751 8.00163C3.53556 8.01874 3.66667 8.16077 3.66667 8.33333V13L3.66504 13.0342C3.64907 13.191 3.52432 13.3157 3.36751 13.3317L3.33333 13.3333H2.66667L2.5293 13.3298C1.12038 13.2583 0 12.0934 0 10.6667V6.66667C0 2.98477 2.98477 1.71802e-07 6.66667 0ZM0.833333 10.6667C0.833333 11.6792 1.65414 12.5 2.66667 12.5H2.83333V8.83333H0.833333V10.6667ZM10.5 12.5H10.6667C11.6792 12.5 12.5 11.6792 12.5 10.6667V8.83333H10.5V12.5Z" fill="var(--fill-0, #CDCFD3)"/>
</svg>
