<svg preserveAspectRatio="xMidYMid meet" width="100%" height="100%" overflow="visible" style="display: block;" viewBox="0 0 37.9535 33.8605" fill="none" xmlns="http://www.w3.org/2000/svg">
<g id="icon">
<path d="M9.09705 0.0282867C14.3011 -0.365303 17.9651 3.437 18.9767 5.92351C19.9884 3.437 23.6524 -0.365303 28.8564 0.0282867C34.3437 0.44486 39.3259 5.76263 37.6092 12.7668C37.1544 14.6219 36.4334 16.3905 35.5339 18.0582H27.1225L24.424 8.16349C24.2453 7.5085 23.649 7.05515 22.9701 7.05818C22.2912 7.06121 21.699 7.51987 21.5262 8.17643L17.9509 21.7624L16.424 16.1635C16.2693 15.5963 15.7974 15.1717 15.2171 15.0775C14.6367 14.9834 14.0549 15.2369 13.7287 15.7261L12.174 18.0582H2.41955C1.52009 16.3905 0.79911 14.6219 0.344292 12.7668C-1.37239 5.76263 3.60979 0.44486 9.09705 0.0282867Z" fill="var(--fill-0, #303030)"/>
<path d="M4.29012 21.0582C9.00813 27.7195 16.0536 32.3141 18.2775 33.6644C18.7067 33.9258 19.2468 33.9258 19.676 33.6644C21.8999 32.3141 28.9454 27.7195 33.6634 21.0582H25.9768C25.3004 21.0582 24.7076 20.6054 24.5297 19.9528L23.0027 14.3539L19.4274 27.9399C19.2546 28.5965 18.6624 29.0551 17.9835 29.0582C17.3046 29.0612 16.7083 28.6078 16.5297 27.9528L14.3968 20.1323L14.2249 20.3902C13.9467 20.8075 13.4783 21.0582 12.9768 21.0582H4.29012Z" fill="var(--fill-0, #303030)"/>
</g>
</svg>
