<svg preserveAspectRatio="none" width="100%" height="100%" overflow="visible" style="display: block;" viewBox="0 0 20 20" fill="none" xmlns="http://www.w3.org/2000/svg">
<path id="icon" fill-rule="evenodd" clip-rule="evenodd" d="M10 0C15.5228 0 20 4.47715 20 10C20 15.5228 15.5228 20 10 20C4.47715 20 0 15.5228 0 10C0 4.47715 4.47715 0 10 0ZM10 1.25C5.16751 1.25 1.25 5.16751 1.25 10C1.25 14.8325 5.16751 18.75 10 18.75C14.8325 18.75 18.75 14.8325 18.75 10C18.75 5.16751 14.8325 1.25 10 1.25ZM10.625 8.75V15.5H9.375V8.75H10.625ZM10 4.5C10.5736 4.5 11 4.9264 11 5.5C11 6.07303 10.5742 6.50184 10 6.50184C9.42581 6.50184 9 6.07303 9 5.5C9 4.9264 9.4264 4.5 10 4.5Z" fill="var(--fill-0, #CDCFD3)"/>
</svg>
