<svg preserveAspectRatio="xMidYMid meet" width="100%" height="100%" overflow="visible" style="display: block;" viewBox="0 0 20.0005 19.9135" fill="none" xmlns="http://www.w3.org/2000/svg">
<path id="icon" d="M13.8687 17.7067C14.1901 17.5473 14.5878 17.6463 14.771 17.9548C14.9542 18.2635 14.8527 18.6651 14.5327 18.8278C13.1669 19.5223 11.6566 19.8945 10.1187 19.9128C8.58063 19.931 7.06221 19.5943 5.68021 18.9323C5.3565 18.7772 5.24572 18.3791 5.42142 18.0661C5.59721 17.7531 5.99266 17.6446 6.3179 17.7966C7.49965 18.3486 8.79329 18.6285 10.1031 18.613C11.413 18.5974 12.7003 18.2867 13.8687 17.7067ZM8.51908 0.0241174C8.87406 -0.0290287 9.18922 0.23872 9.21927 0.596383C9.24925 0.954114 8.98295 1.26635 8.62845 1.32295C7.1062 1.566 5.67186 2.21007 4.47513 3.19404C3.1106 4.316 2.11934 5.82642 1.63431 7.52509C1.1493 9.22383 1.19284 11.0305 1.75931 12.7038C2.25613 14.1713 3.13488 15.4759 4.29935 16.486C4.57034 16.7213 4.6318 17.1268 4.41751 17.4147C4.20311 17.7024 3.79437 17.7635 3.52103 17.531C2.14595 16.3613 1.10935 14.8383 0.527865 13.1208C-0.123224 11.1975 -0.173096 9.12114 0.384311 7.16865C0.941794 5.21608 2.08048 3.47881 3.64896 2.18916C5.04954 1.03759 6.73384 0.291471 8.51908 0.0241174ZM18.5445 6.11689C18.8724 5.97115 19.2591 6.11814 19.3833 6.45478C20.0707 8.31951 20.1885 10.3528 19.7134 12.2927C19.2383 14.2325 18.1944 15.981 16.7232 17.3171C16.4575 17.5581 16.0473 17.5098 15.8238 17.2292C15.6002 16.9484 15.6484 16.5415 15.9117 16.2976C17.1588 15.1426 18.0442 13.6433 18.4507 11.9831C18.8572 10.3229 18.7643 8.58454 18.1919 6.98408C18.0712 6.64614 18.2165 6.26267 18.5445 6.11689ZM10.0005 3.28877C13.6593 3.28891 16.6255 6.25501 16.6255 9.91377C16.6255 13.5726 13.6593 16.5386 10.0005 16.5388C6.34164 16.5388 3.37552 13.5727 3.37552 9.91377C3.37557 6.25492 6.34166 3.28877 10.0005 3.28877ZM10.6255 15.2517C13.2994 14.9418 15.3755 12.6707 15.3755 9.91377C15.3755 7.15681 13.2994 4.88571 10.6255 4.57588V15.2517ZM11.3501 0.00556275C12.7332 0.194035 14.0648 0.669793 15.2564 1.40595C16.4479 2.1421 17.4689 3.11971 18.2564 4.27216C18.4589 4.56852 18.3553 4.96819 18.0464 5.15107C17.7376 5.33389 17.3407 5.23052 17.1353 4.93623C16.4568 3.96377 15.5854 3.138 14.5728 2.5124C13.5601 1.8868 12.4316 1.47687 11.2583 1.30537C10.9033 1.25333 10.6335 0.944622 10.6587 0.586617C10.6842 0.22885 10.9947 -0.0426775 11.3501 0.00556275Z" fill="var(--fill-0, #E9839C)"/>
</svg>
