<svg preserveAspectRatio="xMidYMid meet" width="100%" height="100%" overflow="visible" style="display: block;" viewBox="0 0 3 16" fill="none" xmlns="http://www.w3.org/2000/svg">
<g id="icon">
<path d="M1.5 13C2.32843 13 3 13.6716 3 14.5C3 15.3284 2.32843 16 1.5 16C0.671573 16 0 15.3284 0 14.5C0 13.6716 0.671573 13 1.5 13Z" fill="#CDCFD3"/>
<path d="M1.5 6.5C2.32843 6.5 3 7.17157 3 8C3 8.82843 2.32843 9.5 1.5 9.5C0.671573 9.5 0 8.82843 0 8C0 7.17157 0.671573 6.5 1.5 6.5Z" fill="#CDCFD3"/>
<path d="M1.5 0C2.32843 0 3 0.671573 3 1.5C3 2.32843 2.32843 3 1.5 3C0.671573 3 0 2.32843 0 1.5C0 0.671573 0.671573 0 1.5 0Z" fill="#CDCFD3"/>
</g>
</svg>
