<svg preserveAspectRatio="xMidYMid meet" width="100%" height="100%" overflow="visible" style="display: block;" viewBox="0 0 12.375 2.75" fill="none" xmlns="http://www.w3.org/2000/svg">
<g id="icon">
<path d="M1.375 0C2.13439 0 2.75 0.615608 2.75 1.375C2.75 2.13439 2.13439 2.75 1.375 2.75C0.615608 2.75 0 2.13439 0 1.375C0 0.615608 0.615608 0 1.375 0Z" fill="var(--fill-0, black)"/>
<path d="M6.1875 0C6.94689 0 7.5625 0.615608 7.5625 1.375C7.5625 2.13439 6.94689 2.75 6.1875 2.75C5.42811 2.75 4.8125 2.13439 4.8125 1.375C4.8125 0.615608 5.42811 0 6.1875 0Z" fill="var(--fill-0, black)"/>
<path d="M11 0C11.7594 0 12.375 0.615608 12.375 1.375C12.375 2.13439 11.7594 2.75 11 2.75C10.2406 2.75 9.625 2.13439 9.625 1.375C9.625 0.615608 10.2406 0 11 0Z" fill="var(--fill-0, black)"/>
</g>
</svg>
