<svg preserveAspectRatio="xMidYMid meet" width="100%" height="100%" overflow="visible" style="display: block;" viewBox="0 0 17 20" fill="none" xmlns="http://www.w3.org/2000/svg">
<path id="icon" fill-rule="evenodd" clip-rule="evenodd" d="M8.5 0C9.84583 0 10.941 1.07776 10.9977 2.42593L11 2.53582L11.0007 2.92272C12.1978 3.35526 13.1523 4.11848 13.8617 5.14435C14.6923 6.34562 15.1234 7.85995 15.1234 9.02274V12.0194L16.8928 15.7514C16.9634 15.9003 17 16.0624 17 16.2264C17 16.8516 16.4801 17.3585 15.8388 17.3585L11.2475 17.3585C11.1852 18.8283 9.97852 20 8.5 20C7.02148 20 5.81485 18.8283 5.75253 17.3585L1.16153 17.3585C1.00884 17.3585 0.85764 17.3291 0.716598 17.2721C0.124214 17.0325 -0.156805 16.3702 0.088925 15.7927L1.9112 11.51V9.02274C1.9112 7.85995 2.34234 6.34562 3.17294 5.14435C3.87543 4.12835 4.81849 3.36996 5.9994 2.93529L6 2.53582C6 1.13681 7.1178 0 8.5 0ZM9.99555 17.3584H7.00488C7.06561 18.1324 7.71153 18.7421 8.50022 18.7421C9.28891 18.7421 9.93482 18.1324 9.99555 17.3584ZM8.51705 3.77356C5.01071 3.77356 3.20121 6.3906 3.20121 9.02271V11.7605L1.35449 16.1006H15.6367L13.8329 12.296V9.02271C13.8329 6.3906 12.0234 3.77356 8.51705 3.77356ZM8.49978 1.25781C7.83847 1.25781 7.29487 1.78375 7.25244 2.45158L7.24902 2.61254C7.65041 2.54856 8.07311 2.51567 8.51708 2.51567C8.94818 2.51567 9.35924 2.54668 9.7502 2.60706L9.74978 2.53577C9.74978 1.82849 9.18864 1.25781 8.49978 1.25781Z" fill="var(--fill-0, #CDCFD3)"/>
</svg>
