<svg preserveAspectRatio="none" width="100%" height="100%" overflow="visible" style="display: block;" viewBox="0 0 18.3065 18.3064" fill="none" xmlns="http://www.w3.org/2000/svg">
<path id="icon" fill-rule="evenodd" clip-rule="evenodd" d="M3.86358e-07 13.887L0 18.3064H4.41942L17.6841 5.04182C18.5139 4.21195 18.5139 2.86648 17.6841 2.03661L16.2698 0.622398C15.44 -0.207466 14.0945 -0.207466 13.2646 0.622398L3.86358e-07 13.887ZM1.25 14.4047L11.2316 4.42315L13.8833 7.0748L3.90165 17.0564H1.25L1.25 14.4047ZM14.1485 1.50628C14.4902 1.16457 15.0443 1.16457 15.386 1.50628L16.8002 2.9205C17.1419 3.2622 17.1419 3.81622 16.8002 4.15793L14.7672 6.19086L12.1156 3.53921L14.1485 1.50628Z" fill="var(--fill-0, #CDCFD3)"/>
</svg>
