<svg preserveAspectRatio="none" width="100%" height="100%" overflow="visible" style="display: block;" viewBox="0 0 20 20" fill="none" xmlns="http://www.w3.org/2000/svg">
<path id="icon" fill-rule="evenodd" clip-rule="evenodd" d="M10 0C11.1002 0 12.0443 0.78357 12.247 1.86488L12.2576 1.92108C12.309 2.19509 12.5018 2.4213 12.7642 2.51538L13.3613 2.72944C13.6072 2.8176 13.8805 2.78245 14.0961 2.63493L14.2039 2.56122C15.1118 1.93998 16.3335 2.05352 17.1114 2.83145C17.8894 3.60937 18.0029 4.83105 17.3817 5.73902L17.3242 5.82299C17.1727 6.04448 17.1418 6.32703 17.242 6.57601L17.4581 7.11346C17.5596 7.3659 17.783 7.54906 18.0504 7.59921L18.1351 7.61509C19.2164 7.81783 20 8.76198 20 9.86213C20 10.9623 19.2164 11.9064 18.1351 12.1092L18.0789 12.1197C17.8049 12.1711 17.5787 12.3639 17.4846 12.6264L17.2706 13.2235C17.1824 13.4694 17.2175 13.7427 17.3651 13.9583L17.4388 14.066C18.06 14.974 17.9465 16.1957 17.1686 16.9736C16.3906 17.7515 15.1689 17.8651 14.261 17.2438L14.1978 17.2006C13.9713 17.0456 13.6809 17.0188 13.43 17.1295L12.7348 17.4363C12.4914 17.5438 12.3166 17.7643 12.2676 18.0257L12.247 18.1351C12.0443 19.2164 11.1002 20 10 20C8.89984 20 7.9557 19.2164 7.75295 18.1351L7.7289 18.0068C7.68075 17.75 7.51236 17.5319 7.27613 17.4204L6.70257 17.1496C6.45048 17.0305 6.15416 17.0541 5.92407 17.2115L5.87688 17.2438C4.96892 17.8651 3.74724 17.7515 2.96931 16.9736C2.19139 16.1957 2.07784 14.974 2.69908 14.066L2.74795 13.9946C2.90155 13.7701 2.93002 13.4828 2.82347 13.2325L2.55521 12.6024C2.45005 12.3554 2.22839 12.1773 1.96453 12.1279L1.86488 12.1092C0.78357 11.9064 0 10.9623 0 9.86213C0 8.76198 0.783571 7.81783 1.86488 7.61509L1.9932 7.59103C2.24996 7.54288 2.46806 7.3745 2.57961 7.13827L2.85045 6.5647C2.96949 6.31261 2.9459 6.01629 2.78847 5.7862L2.75619 5.73902C2.13495 4.83105 2.24849 3.60937 3.02642 2.83145C3.80435 2.05352 5.02602 1.93997 5.93399 2.56121L6.0276 2.62527C6.24674 2.7752 6.52556 2.80784 6.7734 2.71259L7.24496 2.53134C7.5015 2.43274 7.68859 2.20818 7.73924 1.93805L7.75295 1.86488C7.9557 0.78357 8.89984 0 10 0ZM10.86 1.25H9.14003L9.01659 1.90834C8.85569 2.76647 8.26139 3.47983 7.44643 3.79306C6.67439 4.08979 5.80581 3.9881 5.12319 3.52104L4.5184 3.10724L3.30221 4.32342L3.62617 4.79689C4.15439 5.56891 4.23354 6.56316 3.83411 7.40902C3.47337 8.17297 2.76807 8.71752 1.9377 8.87322L1.25 9.00216V10.7221L1.86388 10.8372C2.74538 11.0025 3.48592 11.5974 3.83724 12.4226C4.19587 13.265 4.10004 14.2321 3.58306 14.9877L3.2451 15.4816L4.46129 16.6978L4.93476 16.3738C5.70678 15.8456 6.70102 15.7665 7.54689 16.1659C8.31084 16.5266 8.85539 17.2319 9.01108 18.0623L9.14003 18.75H10.86L10.9716 18.1549C11.1387 17.2632 11.7348 16.5113 12.5647 16.1451C13.4356 15.7607 14.4433 15.8539 15.2289 16.3915L15.6766 16.6978L16.8928 15.4816L16.4977 14.9042C16.0206 14.2069 15.9069 13.3231 16.192 12.5278C16.5077 11.6473 17.2667 11.0002 18.1861 10.8278L18.75 10.7221V9.00216L18.1099 8.88214C17.2423 8.71947 16.5177 8.12526 16.1884 7.3063C15.866 6.50486 15.9654 5.59536 16.4532 4.88243L16.8357 4.32342L15.6195 3.10724L15.042 3.50234C14.3448 3.9794 13.461 4.09307 12.6657 3.80796C11.7852 3.49228 11.1381 2.73327 10.9657 1.81387L10.86 1.25ZM10 5.5C12.4853 5.5 14.5 7.51472 14.5 10C14.5 12.4853 12.4853 14.5 10 14.5C7.51472 14.5 5.5 12.4853 5.5 10C5.5 7.51472 7.51472 5.5 10 5.5ZM10 6.75C8.20507 6.75 6.75 8.20507 6.75 10C6.75 11.7949 8.20507 13.25 10 13.25C11.7949 13.25 13.25 11.7949 13.25 10C13.25 8.20507 11.7949 6.75 10 6.75Z" fill="var(--fill-0, #CDCFD3)"/>
</svg>
