<svg preserveAspectRatio="none" width="100%" height="100%" overflow="visible" style="display: block;" viewBox="0 0 12.6537 14.9993" fill="none" xmlns="http://www.w3.org/2000/svg">
<g id="icon">
<path d="M5.80847 3.39697C6.00648 3.39697 6.2028 3.4346 6.38672 3.50793C7.16318 3.81765 7.55368 4.68099 7.2854 5.46313L7.2583 5.53638L6.51562 7.39893C6.42506 7.62602 6.46862 7.88267 6.62476 8.06653L6.66614 8.11121L8.36133 9.76978C8.64732 10.0496 8.81713 10.4259 8.8385 10.8234L8.8407 10.9091V14.9993H7.9032V10.9091C7.9032 10.7521 7.84684 10.6011 7.74573 10.4828L7.70581 10.4399L6.01062 8.78101C5.57077 8.35067 5.41957 7.70779 5.61584 7.12976L5.64478 7.05139L6.38745 5.18884C6.51501 4.86904 6.35936 4.50635 6.03955 4.37878C5.98448 4.35682 5.92662 4.34302 5.8678 4.3374L5.80847 4.33447H4.60144C4.47078 4.33449 4.34366 4.37355 4.23596 4.4458L4.18359 4.48462L1.75269 6.49182L1.15576 5.76892L3.58667 3.76172C3.84845 3.54557 4.17183 3.41911 4.50916 3.39954L4.60144 3.39697H5.80847Z" fill="var(--fill-0, black)"/>
<path d="M4.69592 9.07397L5.36316 9.73242L4.06421 11.049C3.78615 11.3308 3.41398 11.4981 3.02087 11.5206L2.92969 11.5236H0V10.5861H2.92969C3.08331 10.5861 3.23142 10.532 3.34863 10.4348L3.39697 10.3905L4.69592 9.07397Z" fill="var(--fill-0, black)"/>
<path d="M9.92139 6.39001C10.0086 6.6335 10.2299 6.80153 10.4843 6.82288L10.5396 6.82507H12.6537V7.76257H10.5396C9.89342 7.76257 9.31381 7.37291 9.06775 6.78113L9.03882 6.70605L8.1709 4.2821L9.05347 3.96606L9.92139 6.39001Z" fill="var(--fill-0, black)"/>
<path fill-rule="evenodd" clip-rule="evenodd" d="M8.2467 0C9.12691 0 9.84045 0.713546 9.84045 1.59375C9.84045 2.47395 9.12691 3.1875 8.2467 3.1875C7.3665 3.1875 6.65295 2.47395 6.65295 1.59375C6.65295 0.713546 7.3665 0 8.2467 0ZM8.2467 0.9375C7.88427 0.9375 7.59045 1.23131 7.59045 1.59375C7.59045 1.95619 7.88427 2.25 8.2467 2.25C8.60914 2.25 8.90295 1.95619 8.90295 1.59375C8.90295 1.23131 8.60914 0.9375 8.2467 0.9375Z" fill="var(--fill-0, black)"/>
</g>
</svg>
