<svg preserveAspectRatio="xMidYMid meet" width="100%" height="100%" overflow="visible" style="display: block;" viewBox="0 0 17.75 20" fill="none" xmlns="http://www.w3.org/2000/svg">
<path id="icon" fill-rule="evenodd" clip-rule="evenodd" d="M8.66534 11.876L9.08466 11.876C15.4001 11.9364 17.6999 14.7419 17.7492 19.8314L17.75 20H16.5L16.4971 19.6856C16.4145 15.3359 14.5759 13.1761 9.07309 13.1259H8.67691C3.10941 13.1767 1.29272 15.387 1.25075 19.84L1.25 20H0C0 14.8039 2.28051 11.937 8.66534 11.876V11.876ZM8.875 0C11.6364 0 13.875 2.23858 13.875 5C13.875 7.76142 11.6364 10 8.875 10C6.11358 10 3.875 7.76142 3.875 5C3.875 2.23858 6.11358 0 8.875 0ZM8.875 1.25C6.80393 1.25 5.125 2.92893 5.125 5C5.125 7.07107 6.80393 8.75 8.875 8.75C10.9461 8.75 12.625 7.07107 12.625 5C12.625 2.92893 10.9461 1.25 8.875 1.25Z" fill="var(--fill-0, #CDCFD3)"/>
</svg>
