<svg preserveAspectRatio="xMidYMid meet" width="100%" height="100%" overflow="visible" style="display: block;" viewBox="0 0 35.5 40.25" fill="none" xmlns="http://www.w3.org/2000/svg">
<path id="icon" fill-rule="evenodd" clip-rule="evenodd" d="M20.5 0C21.3284 0 22 0.671573 22 1.5C22 2.2797 21.4051 2.92045 20.6445 2.99313L20.5 3H19L19.0005 5.31344C27.9628 6.07459 35 13.5908 35 22.75C35 32.4147 27.1647 40.25 17.5 40.25C7.83531 40.25 0 32.4147 0 22.75C0 13.5904 7.03767 6.07403 16.0005 5.31335L16 3H14.5C13.6716 3 13 2.32843 13 1.5C13 0.720304 13.5949 0.0795513 14.3555 0.00686658L14.5 0H20.5ZM17.8899 10.2048L17.889 14.25H17.5C11.7331 14.25 7 18.9831 7 24.75C7 30.5169 11.7331 35.25 17.5 35.25C23.2669 35.25 28 30.5169 28 24.75H25C25 28.8601 21.6101 32.25 17.5 32.25C13.3899 32.25 10 28.8601 10 24.75C10 20.64 13.3899 17.25 17.5 17.25H17.889L17.8899 21.2952L25.5603 15.75L17.8899 10.2048ZM30.9087 4.30645L31.0259 4.40569L35.0259 8.15569C35.6303 8.72229 35.6609 9.67154 35.0943 10.2759C34.5631 10.8425 33.6956 10.9048 33.0913 10.4435L32.9741 10.3443L28.9741 6.59431C28.3697 6.02771 28.3391 5.07846 28.9057 4.47409C29.4015 3.94527 30.1902 3.85572 30.7845 4.22117L30.9087 4.30645V4.30645Z" fill="var(--fill-0, #303030)"/>
</svg>
