<svg preserveAspectRatio="xMidYMid meet" width="100%" height="100%" overflow="visible" style="display: block;" viewBox="0 0 25.3074 29.9985" fill="none" xmlns="http://www.w3.org/2000/svg">
<g id="icon">
<path d="M11.6169 6.79395C12.013 6.79395 12.4056 6.8692 12.7734 7.01587C14.3264 7.6353 15.1074 9.36197 14.5708 10.9263L14.5166 11.0728L13.0312 14.7979C12.8501 15.252 12.9372 15.7653 13.2495 16.1331L13.3323 16.2224L16.7227 19.5396C17.2946 20.0992 17.6343 20.8518 17.677 21.6467L17.6814 21.8181V29.9985H15.8064V21.8181C15.8064 21.5043 15.6937 21.2022 15.4915 20.9656L15.4116 20.8799L12.0212 17.562C11.1415 16.7013 10.8391 15.4156 11.2317 14.2595L11.2896 14.1028L12.7749 10.3777C13.03 9.73807 12.7187 9.0127 12.0791 8.75757C11.969 8.71364 11.8532 8.68603 11.7356 8.6748L11.6169 8.66895H9.20288C8.94156 8.66897 8.68732 8.7471 8.47192 8.8916L8.36719 8.96924L3.50537 12.9836L2.31152 11.5378L7.17334 7.52344C7.6969 7.09114 8.34366 6.83821 9.01831 6.79907L9.20288 6.79395H11.6169Z" fill="var(--fill-0, white)"/>
<path d="M9.39185 18.1479L10.7263 19.4648L8.12842 22.0979C7.57229 22.6615 6.82796 22.9963 6.04175 23.0413L5.85938 23.0471H0V21.1721H5.85938C6.16662 21.1721 6.46284 21.064 6.69727 20.8696L6.79395 20.781L9.39185 18.1479Z" fill="var(--fill-0, white)"/>
<path d="M19.8428 12.78C20.0172 13.267 20.4597 13.6031 20.9685 13.6458L21.0791 13.6501H25.3074V15.5251H21.0791C19.7868 15.5251 18.6276 14.7458 18.1355 13.5623L18.0776 13.4121L16.3418 8.56421L18.1069 7.93213L19.8428 12.78Z" fill="var(--fill-0, white)"/>
<path fill-rule="evenodd" clip-rule="evenodd" d="M16.4934 0C18.2538 0 19.6809 1.42709 19.6809 3.1875C19.6809 4.94791 18.2538 6.375 16.4934 6.375C14.733 6.375 13.3059 4.94791 13.3059 3.1875C13.3059 1.42709 14.733 0 16.4934 0ZM16.4934 1.875C15.7685 1.875 15.1809 2.46263 15.1809 3.1875C15.1809 3.91237 15.7685 4.5 16.4934 4.5C17.2183 4.5 17.8059 3.91237 17.8059 3.1875C17.8059 2.46263 17.2183 1.875 16.4934 1.875Z" fill="var(--fill-0, white)"/>
</g>
</svg>
