<svg preserveAspectRatio="xMidYMid meet" width="100%" height="100%" overflow="visible" style="display: block;" viewBox="0 0 39.9991 34.7368" fill="none" xmlns="http://www.w3.org/2000/svg">
<path id="icon" fill-rule="evenodd" clip-rule="evenodd" d="M27.4074 3.19349C20.0322 3.71325 14.2105 9.86097 14.2105 17.3684C14.2105 24.8759 20.0322 31.0236 27.4074 31.5434C24.5728 33.5546 21.1087 34.7368 17.3684 34.7368C7.77611 34.7368 0 26.9607 0 17.3684C0 7.77611 7.77611 0 17.3684 0C21.1087 0 24.5728 1.18227 27.4074 3.19349V3.19349ZM26.8416 16.8421L24.7363 15.7895L26.8416 14.7369L27.8942 12.6316L28.9469 14.7369L31.0521 15.7895L28.9469 16.8421L27.8942 18.9474L26.8416 16.8421ZM33.6833 8.94738L30.5254 7.36843L33.6833 5.78949L35.2622 2.63159L36.8412 5.78949L39.9991 7.36843L36.8412 8.94738L35.2622 12.1053L33.6833 8.94738Z" fill="var(--fill-0, #303030)"/>
</svg>
