<svg preserveAspectRatio="xMidYMid meet" width="100%" height="100%" overflow="visible" style="display: block;" viewBox="0 0 23.9015 41.2142" fill="none" xmlns="http://www.w3.org/2000/svg">
<path id="icon" fill-rule="evenodd" clip-rule="evenodd" d="M19.6911 16.0389C20.9193 17.6104 21.9906 19.6567 21.5358 21.4807C21.0996 23.2302 19.4658 24.523 17.3765 24.2393C15.1655 23.9564 13.9068 21.3085 12.9842 18.4852L12.3171 16.4164C11.598 14.2324 11.1141 13.4655 8.18518 12.0631L7.19456 11.6101C6.42829 11.2538 5.67245 10.8633 4.93104 10.2633C2.74938 8.49366 1.6011 5.51876 1.93079 3.26821C2.15678 1.74303 3.09048 0.473375 4.75571 0.137336C5.69303 -0.0638838 6.7292 -0.0427666 7.67337 0.192641C11.1232 1.05279 14.4774 4.61721 15.9327 9.76418C16.918 12.6194 17.9739 14.1083 19.6911 16.0389ZM15.8721 39.2446C13.9903 37.5102 12.4683 36.4981 9.65517 35.5595C4.29076 34.0243 0.610562 30.2205 0.0574426 26.4055C-0.0389796 25.7093 -0.00789701 24.9658 0.105095 24.2033C0.440832 22.5473 1.64568 21.5825 3.1378 21.3219C3.93834 21.2052 4.81069 21.2645 5.68223 21.4818C7.28006 21.8802 8.89321 22.8359 10.004 24.2595C10.7764 25.1993 11.2095 26.2468 11.682 27.2367L12.0842 28.0643C13.6618 31.2317 14.4834 31.164 17.8712 32.3099L18.4116 32.4862C21.0992 33.3883 23.5265 34.612 23.8476 36.8049C23.9356 37.3803 23.9146 37.9286 23.7939 38.4126C23.2556 40.5716 21.078 41.5706 19.1896 41.0998C18.2455 40.8644 17.1484 40.3141 15.8721 39.2446Z" fill="var(--fill-0, #303030)"/>
</svg>
