<svg preserveAspectRatio="none" width="100%" height="100%" overflow="visible" style="display: block;" viewBox="0 0 26.5809 17.5399" fill="none" xmlns="http://www.w3.org/2000/svg">
<path id="icon" d="M26.5742 8.66064C26.5742 13.134 23.3342 16.8673 19.0209 17.454C17.0542 17.7206 15.2009 17.3673 13.4742 16.3873C13.3409 16.314 13.2475 16.3006 13.1075 16.3806C9.64753 18.3406 5.40086 17.774 2.58086 14.9873C-0.845803 11.6006 -0.865804 6.00731 2.5542 2.60064C4.26086 0.880639 6.34753 0.0206389 8.78086 0.00730555C10.3142 0.00063888 11.7475 0.393972 13.0809 1.14731C13.2209 1.22731 13.3209 1.24064 13.4742 1.15397C18.7275 -1.81936 25.2942 1.22731 26.4275 7.15397C26.5275 7.68731 26.5675 8.22731 26.5809 8.65397L26.5742 8.66064ZM11.7875 2.38731C9.00753 1.02731 5.4142 1.65397 3.26086 4.31397C1.10753 6.96731 1.14753 10.754 3.32086 13.3206C5.58753 16.0006 9.18753 16.4606 11.7809 15.1606C10.0009 13.4073 9.04753 11.294 9.04086 8.78731C9.04086 6.28064 9.9942 4.16731 11.7809 2.39397L11.7875 2.38731ZM14.7742 15.154C17.3075 16.4273 20.8809 16.034 23.1809 13.3806C25.3875 10.8273 25.4609 7.02064 23.3675 4.39397C21.1875 1.66064 17.5609 1.02064 14.7675 2.38731C16.5475 4.14064 17.5075 6.25397 17.5142 8.76064C17.5142 11.274 16.5609 13.394 14.7742 15.1606V15.154ZM13.2875 7.72064C12.5209 7.72064 11.7542 7.72064 10.9875 7.72064C10.8475 7.72064 10.7942 7.75397 10.7742 7.90064C10.7075 8.48731 10.7075 9.07397 10.7742 9.66064C10.7875 9.78064 10.8275 9.82064 10.9542 9.82064C12.4942 9.82064 14.0409 9.82064 15.5809 9.82064C15.7275 9.82064 15.7742 9.76731 15.7875 9.62731C15.8475 9.06064 15.8475 8.50064 15.7875 7.93397C15.7675 7.74731 15.7009 7.71397 15.5342 7.71397C14.7809 7.72064 14.0342 7.71397 13.2809 7.71397L13.2875 7.72064ZM11.3075 11.5073C11.3075 11.5473 11.3075 11.574 11.3209 11.594C11.7475 12.5806 12.3742 13.414 13.1742 14.1206C13.2742 14.2073 13.3275 14.1806 13.4142 14.1073C14.1809 13.434 14.7742 12.634 15.2075 11.7073C15.2809 11.554 15.2675 11.5006 15.0809 11.5073C14.5009 11.514 13.9209 11.5073 13.3409 11.5073C12.6675 11.5073 11.9875 11.5073 11.3075 11.5073ZM11.2809 6.04064C12.5875 6.04064 13.8609 6.04064 15.1342 6.04064C15.3142 6.04064 15.2609 5.95397 15.2142 5.86064C14.7875 4.92064 14.1809 4.12064 13.4142 3.43397C13.3275 3.36064 13.2675 3.34064 13.1742 3.42064C12.3542 4.14064 11.7275 4.99397 11.2809 6.04064Z" fill="var(--fill-0, #303030)"/>
</svg>
