<svg preserveAspectRatio="xMidYMid meet" width="100%" height="100%" overflow="visible" style="display: block;" viewBox="0 0 36.998 40.9994" fill="none" xmlns="http://www.w3.org/2000/svg">
<g id="icon">
<path d="M19.1848 0C20.5714 0 21.958 0 23.3446 0C24.3563 0 25.125 0.744948 25.1133 1.71036C25.1038 2.65953 24.3351 3.38592 23.3399 3.38824C22.5758 3.38824 21.8118 3.3952 21.0477 3.3836C20.8402 3.38128 20.7765 3.42769 20.7789 3.6412C20.7907 4.69016 20.7931 5.73912 20.7789 6.78808C20.7765 7.01551 20.8591 7.05264 21.0642 7.07121C27.6177 7.7094 33.4565 11.9285 35.5577 18.0458C37.7909 24.5462 36.6401 30.4941 31.9308 35.616C29.1222 38.6723 25.5377 40.4082 21.3661 40.877C16.7181 41.3992 12.5134 40.2481 8.77572 37.4702C8.26163 37.0873 8.21447 36.7879 8.57763 36.2681C13.3671 29.4359 18.159 22.6037 22.9508 15.7716C23.0451 15.6346 23.1819 15.5047 23.0805 15.3213C22.9815 15.1403 22.7952 15.1705 22.6254 15.1705C19.9653 15.1705 17.3053 15.1705 14.6453 15.1705C13.8788 15.1705 13.5086 14.8154 13.5086 14.0705C13.5086 12.2974 13.5133 10.5244 13.5039 8.7514C13.5039 8.49844 13.5864 8.37312 13.8293 8.28262C14.9235 7.88113 16.0083 7.45644 17.1473 7.18956C17.3006 7.15243 17.3407 7.09209 17.3407 6.94821C17.3359 5.83427 17.3359 4.72033 17.3407 3.60638C17.3407 3.43697 17.2935 3.3836 17.119 3.38592C16.4021 3.3952 15.6852 3.39056 14.9683 3.39056C13.9779 3.38824 13.2091 2.64793 13.2068 1.69876C13.2068 0.74959 13.9802 0 14.9683 0C16.3738 0 17.7793 0 19.1848 0ZM20.7577 33.4507C20.7577 32.8845 20.7648 32.3182 20.7577 31.7543C20.7435 30.8005 19.9866 30.0671 19.0268 30.0671C18.1094 30.0671 17.3501 30.8144 17.3477 31.7496C17.3477 32.8984 17.3595 34.0495 17.3855 35.1982C17.4043 36.1079 18.1943 36.8134 19.1423 36.7972C20.0455 36.7833 20.7836 36.0453 20.7883 35.1495C20.7907 34.5832 20.7883 34.017 20.7883 33.4507H20.7577ZM28.9076 22.056C28.3511 22.056 27.7945 22.056 27.238 22.056C26.2806 22.0584 25.5165 22.7847 25.4929 23.7084C25.4693 24.6042 26.2145 25.3886 27.1578 25.4095C28.3345 25.4327 29.516 25.435 30.6927 25.4095C31.6572 25.3886 32.3647 24.6181 32.3411 23.6782C32.3175 22.7685 31.5606 22.0607 30.6031 22.056C30.0372 22.056 29.4712 22.056 28.9052 22.056H28.9076Z" fill="var(--fill-0, #303030)"/>
<path d="M7.76165 7.51013C8.79925 7.51013 9.83686 7.51013 10.8745 7.51013C11.7494 7.51013 12.188 8.09263 11.9262 8.90952C10.9334 12.0193 9.93826 15.129 8.9431 18.2388C8.83934 18.5614 8.8417 18.5637 9.18364 18.5637C11.5513 18.5637 13.9165 18.5637 16.2841 18.5637C16.3596 18.5637 16.4351 18.559 16.5105 18.5637C16.7558 18.5892 16.803 18.7261 16.6355 18.9559C16.1804 19.5802 15.7182 20.2021 15.2607 20.8264C12.2988 24.8528 9.33692 28.8792 6.37504 32.9057C6.33731 32.959 6.29486 33.0101 6.25948 33.0635C6.20996 33.1354 6.15572 33.2074 6.05432 33.1726C5.93877 33.1308 5.95292 33.0287 5.96471 32.9382C6.02366 32.5251 6.08498 32.112 6.14393 31.6989C6.53303 29.0463 6.92214 26.3961 7.30888 23.7435C7.36076 23.3884 7.35604 23.3861 7.01175 23.3699C4.76203 23.2654 2.51468 23.1564 0.264965 23.0612C0.00792217 23.0496 -0.0345252 22.9754 0.0220713 22.7479C1.17758 17.9533 2.32838 13.1564 3.48389 8.35951C3.62539 7.77005 3.97204 7.50781 4.59696 7.50781C5.65343 7.50781 6.7099 7.50781 7.76637 7.50781L7.76165 7.51013Z" fill="var(--fill-0, #303030)"/>
<path d="M35.27 11.2972C34.8573 11.2995 34.4941 11.1696 34.1758 10.9143C33.216 10.1508 32.2539 9.3896 31.2964 8.62144C30.5277 8.00413 30.4074 6.95285 31.0111 6.21486C31.6148 5.47688 32.6854 5.37013 33.4589 5.98047C34.4234 6.73934 35.3832 7.50518 36.3406 8.27101C36.9278 8.74212 37.1447 9.49403 36.8971 10.174C36.6519 10.8493 36.0057 11.2949 35.27 11.2949V11.2972Z" fill="var(--fill-0, #303030)"/>
</g>
</svg>
