<svg preserveAspectRatio="none" width="100%" height="100%" overflow="visible" style="display: block;" viewBox="0 0 20 19.8939" fill="none" xmlns="http://www.w3.org/2000/svg">
<g id="icon">
<path d="M16.3637 1.25C16.3637 0.559645 16.9233 0 17.6137 0H18.75C19.4404 0 20 0.559644 20 1.25V19.8939H16.3637V1.25Z" fill="var(--fill-0, #CDCFD3)"/>
<path d="M0 15.5488C0 14.8584 0.559644 14.2988 1.25 14.2988H2.38636C3.07672 14.2988 3.63636 14.8584 3.63636 15.5488V19.8939H0V15.5488Z" fill="var(--fill-0, #CDCFD3)"/>
<path d="M5.45447 6.84517C5.45447 6.15482 6.01411 5.59517 6.70447 5.59517H7.84083C8.53119 5.59517 9.09083 6.15482 9.09083 6.84517V19.8939H5.45447V6.84517Z" fill="var(--fill-0, #CDCFD3)"/>
<path d="M10.9091 11.8187C10.9091 11.1283 11.4687 10.5687 12.1591 10.5687H13.2954C13.9858 10.5687 14.5454 11.1283 14.5454 11.8187V19.8939H10.9091V11.8187Z" fill="var(--fill-0, #CDCFD3)"/>
</g>
</svg>
