<svg preserveAspectRatio="xMidYMid meet" width="100%" height="100%" overflow="visible" style="display: block;" viewBox="0 0 20.25 19" fill="none" xmlns="http://www.w3.org/2000/svg">
<g id="icon">
<path d="M9.5 11.625C9.5 11.2798 9.77982 11 10.125 11C10.4702 11 10.75 11.2798 10.75 11.625V19H9.5V11.625Z" fill="var(--fill-0, #CDCFD3)"/>
<path d="M14.25 5.625C14.25 5.27982 14.5298 5 14.875 5C15.2202 5 15.5 5.27982 15.5 5.625V19H14.25V5.625Z" fill="var(--fill-0, #CDCFD3)"/>
<path d="M19 0.625C19 0.279822 19.2798 0 19.625 0C19.9702 0 20.25 0.279822 20.25 0.625V19H19V0.625Z" fill="var(--fill-0, #CDCFD3)"/>
<path d="M4.75 9.625C4.75 9.27982 5.02982 9 5.375 9C5.72018 9 6 9.27982 6 9.625V19H4.75V9.625Z" fill="var(--fill-0, #CDCFD3)"/>
<path d="M0 10.625C0 10.2798 0.279822 10 0.625 10C0.970178 10 1.25 10.2798 1.25 10.625V19H0V10.625Z" fill="var(--fill-0, #CDCFD3)"/>
</g>
</svg>
