<svg preserveAspectRatio="xMidYMid meet" width="100%" height="100%" overflow="visible" style="display: block;" viewBox="0 0 20 20" fill="none" xmlns="http://www.w3.org/2000/svg">
<path id="Subtract" d="M10 0C15.5228 0 20 4.47715 20 10C20 15.5228 15.5228 20 10 20C4.47715 20 0 15.5228 0 10C0 4.47715 4.47715 0 10 0ZM15.4355 10.9385C14.8776 10.9385 14.2836 11.1419 13.8936 11.5918L14.3799 12.1562C14.6498 11.8743 14.9974 11.6944 15.4473 11.6943C15.7832 11.6943 16.1015 11.8679 16.1016 12.2158C16.1016 12.7078 15.6214 13.1221 13.9834 14.3281V15H16.9951V14.25H15.3271C16.4011 13.494 16.9658 12.8998 16.9658 12.2158C16.9657 11.4179 16.2875 10.9385 15.4355 10.9385ZM11.2539 7.07617C9.64596 7.07622 8.46973 8.22797 8.46973 9.83594C8.46973 11.4439 9.64596 12.5957 11.2539 12.5957C12.8699 12.5957 14.0459 11.4439 14.0459 9.83594C14.0459 8.22794 12.8699 7.07617 11.2539 7.07617ZM4.70996 12.5H6.13379L8.18945 7.16406H6.89355L5.42188 11.2676L3.94141 7.16406H2.64551L4.70996 12.5ZM11.2539 8.08398C12.2379 8.08398 12.8779 8.83594 12.8779 9.83594C12.8779 10.8279 12.2379 11.5879 11.2539 11.5879C10.27 11.5878 9.6377 10.8279 9.6377 9.83594C9.6377 8.83597 10.27 8.08404 11.2539 8.08398Z" fill="var(--fill-0, #303030)"/>
</svg>
