<svg preserveAspectRatio="xMidYMid meet" width="100%" height="100%" overflow="visible" style="display: block;" viewBox="0 0 9.11206 13.7487" fill="none" xmlns="http://www.w3.org/2000/svg">
<g id="icon">
<path d="M3.09409 8.94287L3.79166 9.4444L0.697906 13.7487L0 13.2471L3.09409 8.94287Z" fill="var(--fill-0, black)"/>
<path d="M3.07059 3.64362C3.74482 3.64369 4.29562 4.17277 4.33044 4.83835L4.33212 4.90515V6.92703C4.33212 7.0797 4.39024 7.2258 4.49326 7.33658L4.53387 7.37653L6.1311 8.79752C6.2596 8.91183 6.36697 9.04781 6.448 9.19901L6.48627 9.27588L8.38797 13.3878L7.60815 13.7487L5.70612 9.63641C5.68011 9.58024 5.64568 9.52849 5.60406 9.483L5.56009 9.4397L3.96252 8.01871C3.67169 7.75999 3.49713 7.39664 3.4751 7.01028L3.47275 6.92703V4.90515C3.4727 4.68308 3.29265 4.50306 3.07059 4.50299C3.01026 4.50299 2.95077 4.51671 2.8967 4.5426L2.85709 4.56409L1.96011 5.12503C1.83573 5.20282 1.74473 5.32306 1.70297 5.4624L1.68954 5.51578L1.10611 8.39502L0.263855 8.22415L0.84729 5.34491C0.921627 4.97812 1.13374 4.65485 1.43811 4.44055L1.50458 4.39624L2.40155 3.83563C2.6021 3.71024 2.83406 3.64362 3.07059 3.64362Z" fill="var(--fill-0, black)"/>
<path d="M6.44867 5.51813C6.5251 5.74735 6.73047 5.90705 6.96799 5.92734L7.01935 5.92935H9.11206V6.78873H7.01935C6.41478 6.78869 5.87551 6.41672 5.65811 5.85785L5.63361 5.7897L5.04514 4.02496L5.86053 3.75305L6.44867 5.51813Z" fill="var(--fill-0, black)"/>
<path fill-rule="evenodd" clip-rule="evenodd" d="M4.4184 0C5.22525 0 5.87933 0.654084 5.87933 1.46094C5.87933 2.26779 5.22525 2.92188 4.4184 2.92188C3.61154 2.92188 2.95746 2.26779 2.95746 1.46094C2.95746 0.654084 3.61154 0 4.4184 0ZM4.4184 0.859375C4.08616 0.859375 3.81683 1.1287 3.81683 1.46094C3.81683 1.79317 4.08616 2.0625 4.4184 2.0625C4.75063 2.0625 5.01996 1.79317 5.01996 1.46094C5.01996 1.1287 4.75063 0.859375 4.4184 0.859375Z" fill="var(--fill-0, black)"/>
</g>
</svg>
