<svg preserveAspectRatio="xMidYMid meet" width="100%" height="100%" overflow="visible" style="display: block;" viewBox="0 0 15 20.25" fill="none" xmlns="http://www.w3.org/2000/svg">
<path id="icon" fill-rule="evenodd" clip-rule="evenodd" d="M7.49083 0L7.73254 0.00211384C8.70067 0.0203703 9.49507 0.156055 10.1299 0.376967C10.4927 0.503199 10.7585 0.63962 10.9363 0.762589L10.9989 0.808026L11.0995 0.877893C11.5244 1.19324 11.8079 1.67009 12.0138 2.2241L12.0316 2.27802L12.1105 2.55789L12.6605 4.68263C14.1014 6.04936 15 7.98224 15 10.125C15 12.2673 14.1018 14.1997 12.6615 15.5664L12.2511 17.1587L12.0588 17.8807L12.0139 18.0255C11.8079 18.5799 11.5244 19.0568 11.0995 19.3721L10.9989 19.442L10.9363 19.4874C10.7585 19.6104 10.4927 19.7468 10.1299 19.873C9.49507 20.0939 8.70067 20.2296 7.72846 20.2479L7.50094 20.25L7.31272 20.2487C5.84979 20.2268 4.82803 19.9497 4.16748 19.5533L4.07963 19.4986L3.87962 19.3578C3.49668 19.0623 3.23046 18.6414 3.03477 18.159L2.97606 18.0058L2.94188 17.8935V17.8935L2.81836 17.4397L2.32947 15.5579C0.894423 14.1917 0 12.2628 0 10.125C0 7.98721 0.894423 6.05832 2.32947 4.69215L2.61199 3.59859L2.86023 2.65318L2.95001 2.32849L2.98296 2.22451C3.20483 1.62749 3.51655 1.12033 3.99799 0.808026C4.17349 0.673885 4.4588 0.518978 4.86693 0.376967C5.55063 0.139062 6.41935 0 7.49083 0ZM7.5 4.125C4.18629 4.125 1.5 6.81129 1.5 10.125C1.5 13.4387 4.18629 16.125 7.5 16.125C10.8137 16.125 13.5 13.4387 13.5 10.125C13.5 6.81129 10.8137 4.125 7.5 4.125Z" fill="var(--fill-0, #CDCFD3)"/>
</svg>
