<svg preserveAspectRatio="none" width="100%" height="100%" overflow="visible" style="display: block;" viewBox="0 0 9.83333 13.3333" fill="none" xmlns="http://www.w3.org/2000/svg">
<path id="icon" fill-rule="evenodd" clip-rule="evenodd" d="M4.928 0L5.07055 0.00138212C5.65822 0.0123998 6.14717 0.0888174 6.54507 0.213683L6.64265 0.245899C6.90868 0.338211 7.09174 0.437824 7.2011 0.521869C7.48138 0.702132 7.67379 0.992704 7.81382 1.33705L7.84776 1.42423C7.86609 1.47333 7.91564 1.65679 8.00708 2.00899L8.28301 3.08344V3.08344C9.23724 3.9798 9.83333 5.25362 9.83333 6.66667C9.83333 8.07971 9.23724 9.35354 8.28279 10.2504L7.94273 11.5681C7.89618 11.7442 7.86697 11.8497 7.85204 11.8942L7.84798 11.9058C7.70563 12.2888 7.50508 12.6143 7.20152 12.8102C7.09217 12.8944 6.90906 12.9943 6.64291 13.0868C6.22817 13.2311 5.70731 13.32 5.07057 13.3319L4.90485 13.3333L4.7626 13.3319C4.12587 13.32 3.60503 13.2311 3.19032 13.0868C2.92426 12.9943 2.74119 12.8944 2.63184 12.8102C2.35159 12.6295 2.15956 12.3389 2.01914 11.9931L1.98509 11.9055C1.96488 11.851 1.90393 11.6251 1.78865 11.1849L1.5442 10.2443V10.2443C0.593472 9.34792 0 8.0766 0 6.66667C0 5.25673 0.593472 3.98541 1.54424 3.08889L1.89056 1.75975C1.94178 1.56779 1.97211 1.46002 1.98543 1.42419C2.12855 1.04103 2.32859 0.71704 2.63227 0.521841C2.74163 0.437795 2.92465 0.338199 3.19059 0.245904C3.60522 0.102009 4.12597 0.0133181 4.76262 0.00138214L4.928 0ZM2.60286 11.0061L2.76597 11.6152V11.6152C2.84479 11.8269 2.95283 12.0078 3.05872 12.0921L3.14672 12.1543C3.15347 12.1585 3.16654 12.1666 3.18636 12.1779C3.2557 12.2176 3.34751 12.2593 3.46383 12.2997C3.79454 12.4148 4.22969 12.4888 4.78185 12.4988L4.92132 12.5C5.53543 12.5 6.01274 12.4236 6.36894 12.2997C6.46202 12.2674 6.53941 12.2342 6.60216 12.2019L6.67727 12.1597V12.1597L6.69136 12.1511L6.74235 12.1144C6.8475 12.0501 6.95816 11.8822 7.04231 11.6776L7.06673 11.6152C7.07209 11.6008 7.13852 11.3504 7.22759 11.0073C6.53892 11.3749 5.75201 11.5833 4.91642 11.5833C4.08002 11.5833 3.2924 11.3745 2.60286 11.0061ZM4.91667 2.58333C2.6615 2.58333 0.833333 4.4115 0.833333 6.66667C0.833333 8.92183 2.6615 10.75 4.91667 10.75C7.17183 10.75 9 8.92183 9 6.66667C9 4.4115 7.17183 2.58333 4.91667 2.58333ZM5.0512 0.834489L4.92167 0.833333H4.9117C4.29751 0.833333 3.82014 0.909548 3.46391 1.03318C3.37083 1.06548 3.29344 1.09859 3.23069 1.13079L3.15559 1.17289V1.17289L3.14154 1.18146L3.09024 1.21829C2.97481 1.28858 2.85293 1.48355 2.76642 1.71516L2.60286 2.32733V2.32733C3.2925 1.95892 4.08023 1.75 4.91677 1.75C5.75249 1.75 6.53952 1.95851 7.22866 2.32635L7.06881 1.72096V1.72096L7.06709 1.71552C6.98863 1.50501 6.88055 1.3244 6.77482 1.24045L6.69205 1.1815C6.69454 1.18359 6.68023 1.1736 6.64718 1.15476C6.57779 1.11521 6.48594 1.07356 6.36956 1.03318C6.03872 0.91838 5.60345 0.844463 5.0512 0.834489Z" fill="var(--fill-0, #CDCFD3)"/>
</svg>
