<svg preserveAspectRatio="xMidYMid meet" width="100%" height="100%" overflow="visible" style="display: block;" viewBox="0 0 20 13" fill="none" xmlns="http://www.w3.org/2000/svg">
<path id="icon" d="M15.5187 4.81963C15.6774 4.8001 15.8369 4.7902 15.9968 4.79006C18.2077 4.79006 20 6.62784 20 8.89496C20 11.1621 18.2077 13 15.9968 13H3.6533C1.7376 12.9913 0.150579 11.4726 0.0100533 9.51336C-0.130734 7.55422 1.22234 5.81385 3.11611 5.51736C3.03013 5.16789 2.98629 4.80866 2.98616 4.44795C2.98472 2.36092 4.39951 0.554042 6.38736 0.104632C8.37495 -0.344645 10.3997 0.684892 11.2541 2.57927C11.5992 2.45738 11.9618 2.39517 12.327 2.39557C13.7941 2.39865 15.088 3.38149 15.5187 4.81963Z" fill="var(--fill-0, #99DEB0)"/>
</svg>
