<svg preserveAspectRatio="none" width="100%" height="100%" overflow="visible" style="display: block;" viewBox="0 0 25.0018 24.9519" fill="none" xmlns="http://www.w3.org/2000/svg">
<g id="icon">
<path fill-rule="evenodd" clip-rule="evenodd" d="M14.8004 6.45882L17.0276 7.40731C17.6572 7.67551 18.159 8.17652 18.4283 8.80562L20.0616 12.6222H21.2518V10.5878C21.2519 10.2428 21.5317 9.96289 21.8768 9.96285H23.1268C23.4719 9.96285 23.7517 10.2428 23.7518 10.5878V12.6222L24.2206 12.6228C24.625 12.6228 24.958 12.9302 24.9982 13.3241L25.0018 13.404C25.0018 13.8085 24.6945 14.141 24.3005 14.181L24.2206 14.1853L23.7518 14.1847V16.2128C23.7517 16.5579 23.4719 16.8378 23.1268 16.8378H21.8768C21.5318 16.8378 21.2519 16.5579 21.2518 16.2128V14.1847H19.0588L19.0356 14.195L19.0314 14.1847H13.6578L18.2776 24.3031L16.8561 24.9519L11.9604 14.2286L11.9421 14.1847H3.75183V16.2165C3.75183 16.5617 3.47201 16.8415 3.12683 16.8415H1.87683C1.53169 16.8415 1.25183 16.5617 1.25183 16.2165V14.1847L0.78125 14.1853C0.376767 14.1853 0.044311 13.8779 0.00427246 13.484L0 13.404C0.000107485 12.9996 0.30746 12.6671 0.701294 12.627L0.78125 12.6228L1.25183 12.6222V10.5915C1.25195 10.2465 1.53176 9.96655 1.87683 9.96651H3.12683C3.47194 9.96651 3.75172 10.2464 3.75183 10.5915V12.6222H4.69482L6.9458 8.4919C7.29161 7.85752 7.87976 7.39305 8.57239 7.20223L8.71277 7.16744L10.1056 6.86409C11.5192 6.55617 12.9151 7.45252 13.2233 8.86605C13.2532 9.00343 13.2719 9.14327 13.2794 9.28353L13.2831 9.42391V12.6222H18.3624L16.9922 9.42086C16.8813 9.16186 16.6746 8.95513 16.4154 8.84468L14.1882 7.8962L14.8004 6.45882ZM10.5286 8.37532L10.4382 8.39119L9.04541 8.69454C8.76985 8.75459 8.5295 8.91859 8.3728 9.14986L8.31787 9.24019L6.47461 12.6222H11.7206L11.7212 9.42452C11.7212 9.34896 11.7128 9.27313 11.6968 9.1993C11.5789 8.65892 11.0671 8.30544 10.5286 8.37532Z" fill="var(--fill-0, black)"/>
<path d="M9.62158 15.5567L11.1102 16.0328L8.27148 24.8994L6.78345 24.4227L9.62158 15.5567Z" fill="var(--fill-0, black)"/>
<path fill-rule="evenodd" clip-rule="evenodd" d="M9.97375 1.84212C10.565 0.0418231 12.7537 -0.587104 14.2114 0.62447C15.0315 1.30726 15.3624 2.45724 15.0293 3.47054C14.4371 5.27107 12.2475 5.90056 10.7904 4.68819C9.97019 4.00614 9.64045 2.85532 9.97375 1.84212ZM13.2135 1.82625C12.6039 1.31955 11.7061 1.57739 11.4587 2.3304C11.3257 2.73474 11.4637 3.21561 11.7908 3.48763C12.4002 3.99474 13.2983 3.73636 13.5461 2.98287C13.6788 2.57901 13.5407 2.0987 13.2135 1.82625Z" fill="var(--fill-0, black)"/>
</g>
</svg>
